<?xml version="1.0" encoding="utf-8" standalone="no"?>
<!DOCTYPE svg PUBLIC "-//W3C//DTD SVG 1.1//EN"
  "http://www.w3.org/Graphics/SVG/1.1/DTD/svg11.dtd">
<svg xmlns:xlink="http://www.w3.org/1999/xlink" width="720pt" height="360pt" viewBox="0 0 720 360" xmlns="http://www.w3.org/2000/svg" version="1.1">
 <metadata>
  <rdf:RDF xmlns:dc="http://purl.org/dc/elements/1.1/" xmlns:cc="http://creativecommons.org/ns#" xmlns:rdf="http://www.w3.org/1999/02/22-rdf-syntax-ns#">
   <cc:Work>
    <dc:type rdf:resource="http://purl.org/dc/dcmitype/StillImage"/>
    <dc:date>2022-10-18T13:27:00.162256</dc:date>
    <dc:format>image/svg+xml</dc:format>
    <dc:creator>
     <cc:Agent>
      <dc:title>Matplotlib v3.5.2, https://matplotlib.org/</dc:title>
     </cc:Agent>
    </dc:creator>
   </cc:Work>
  </rdf:RDF>
 </metadata>
 <defs>
  <style type="text/css">*{stroke-linejoin: round; stroke-linecap: butt}</style>
 </defs>
 <g id="figure_1">
  <g id="patch_1">
   <path d="M 0 360 
L 720 360 
L 720 0 
L 0 0 
z
" style="fill: #ffffff"/>
  </g>
  <g id="axes_1">
   <g id="patch_2">
    <path d="M 90 320.4 
L 648 320.4 
L 648 43.2 
L 90 43.2 
z
" style="fill: #ffffff"/>
   </g>
   <g id="patch_3">
    <path d="M 115.363636 320.4 
L 185.332288 320.4 
L 185.332288 106.077239 
L 115.363636 106.077239 
z
" clip-path="url(#p53b7a9c235)" style="fill: #1f77b4; opacity: 0.33"/>
   </g>
   <g id="patch_4">
    <path d="M 202.824451 320.4 
L 272.793103 320.4 
L 272.793103 141.273941 
L 202.824451 141.273941 
z
" clip-path="url(#p53b7a9c235)" style="fill: #1f77b4; opacity: 0.33"/>
   </g>
   <g id="patch_5">
    <path d="M 290.285266 320.4 
L 360.253918 320.4 
L 360.253918 99.708817 
L 290.285266 99.708817 
z
" clip-path="url(#p53b7a9c235)" style="fill: #1f77b4; opacity: 0.33"/>
   </g>
   <g id="patch_6">
    <path d="M 377.746082 320.4 
L 447.714734 320.4 
L 447.714734 96.242465 
L 377.746082 96.242465 
z
" clip-path="url(#p53b7a9c235)" style="fill: #1f77b4; opacity: 0.33"/>
   </g>
   <g id="patch_7">
    <path d="M 465.206897 320.4 
L 535.175549 320.4 
L 535.175549 132.364635 
L 465.206897 132.364635 
z
" clip-path="url(#p53b7a9c235)" style="fill: #1f77b4; opacity: 0.33"/>
   </g>
   <g id="patch_8">
    <path d="M 552.667712 320.4 
L 622.636364 320.4 
L 622.636364 125.984443 
L 552.667712 125.984443 
z
" clip-path="url(#p53b7a9c235)" style="fill: #1f77b4; opacity: 0.33"/>
   </g>
   <g id="matplotlib.axis_1">
    <g id="xtick_1">
     <g id="line2d_1">
      <defs>
       <path id="m4c8fda8836" d="M 0 0 
L 0 3.5 
" style="stroke: #000000; stroke-width: 0.8"/>
      </defs>
      <g>
       <use xlink:href="#m4c8fda8836" x="150.347962" y="320.4" style="stroke: #000000; stroke-width: 0.8"/>
      </g>
     </g>
     <g id="text_1">
      <!-- CNN1D -->
      <g transform="translate(153.107337 363.407812)rotate(-90)scale(0.1 -0.1)">
       <defs>
        <path id="DejaVuSans-43" d="M 4122 4306 
L 4122 3641 
Q 3803 3938 3442 4084 
Q 3081 4231 2675 4231 
Q 1875 4231 1450 3742 
Q 1025 3253 1025 2328 
Q 1025 1406 1450 917 
Q 1875 428 2675 428 
Q 3081 428 3442 575 
Q 3803 722 4122 1019 
L 4122 359 
Q 3791 134 3420 21 
Q 3050 -91 2638 -91 
Q 1578 -91 968 557 
Q 359 1206 359 2328 
Q 359 3453 968 4101 
Q 1578 4750 2638 4750 
Q 3056 4750 3426 4639 
Q 3797 4528 4122 4306 
z
" transform="scale(0.015625)"/>
        <path id="DejaVuSans-4e" d="M 628 4666 
L 1478 4666 
L 3547 763 
L 3547 4666 
L 4159 4666 
L 4159 0 
L 3309 0 
L 1241 3903 
L 1241 0 
L 628 0 
L 628 4666 
z
" transform="scale(0.015625)"/>
        <path id="DejaVuSans-31" d="M 794 531 
L 1825 531 
L 1825 4091 
L 703 3866 
L 703 4441 
L 1819 4666 
L 2450 4666 
L 2450 531 
L 3481 531 
L 3481 0 
L 794 0 
L 794 531 
z
" transform="scale(0.015625)"/>
        <path id="DejaVuSans-44" d="M 1259 4147 
L 1259 519 
L 2022 519 
Q 2988 519 3436 956 
Q 3884 1394 3884 2338 
Q 3884 3275 3436 3711 
Q 2988 4147 2022 4147 
L 1259 4147 
z
M 628 4666 
L 1925 4666 
Q 3281 4666 3915 4102 
Q 4550 3538 4550 2338 
Q 4550 1131 3912 565 
Q 3275 0 1925 0 
L 628 0 
L 628 4666 
z
" transform="scale(0.015625)"/>
       </defs>
       <use xlink:href="#DejaVuSans-43"/>
       <use xlink:href="#DejaVuSans-4e" x="69.824219"/>
       <use xlink:href="#DejaVuSans-4e" x="144.628906"/>
       <use xlink:href="#DejaVuSans-31" x="219.433594"/>
       <use xlink:href="#DejaVuSans-44" x="283.056641"/>
      </g>
     </g>
    </g>
    <g id="xtick_2">
     <g id="line2d_2">
      <g>
       <use xlink:href="#m4c8fda8836" x="237.808777" y="320.4" style="stroke: #000000; stroke-width: 0.8"/>
      </g>
     </g>
     <g id="text_2">
      <!-- CNN2D -->
      <g transform="translate(240.568152 363.407812)rotate(-90)scale(0.1 -0.1)">
       <defs>
        <path id="DejaVuSans-32" d="M 1228 531 
L 3431 531 
L 3431 0 
L 469 0 
L 469 531 
Q 828 903 1448 1529 
Q 2069 2156 2228 2338 
Q 2531 2678 2651 2914 
Q 2772 3150 2772 3378 
Q 2772 3750 2511 3984 
Q 2250 4219 1831 4219 
Q 1534 4219 1204 4116 
Q 875 4013 500 3803 
L 500 4441 
Q 881 4594 1212 4672 
Q 1544 4750 1819 4750 
Q 2544 4750 2975 4387 
Q 3406 4025 3406 3419 
Q 3406 3131 3298 2873 
Q 3191 2616 2906 2266 
Q 2828 2175 2409 1742 
Q 1991 1309 1228 531 
z
" transform="scale(0.015625)"/>
       </defs>
       <use xlink:href="#DejaVuSans-43"/>
       <use xlink:href="#DejaVuSans-4e" x="69.824219"/>
       <use xlink:href="#DejaVuSans-4e" x="144.628906"/>
       <use xlink:href="#DejaVuSans-32" x="219.433594"/>
       <use xlink:href="#DejaVuSans-44" x="283.056641"/>
      </g>
     </g>
    </g>
    <g id="xtick_3">
     <g id="line2d_3">
      <g>
       <use xlink:href="#m4c8fda8836" x="325.269592" y="320.4" style="stroke: #000000; stroke-width: 0.8"/>
      </g>
     </g>
     <g id="text_3">
      <!-- LSTM -->
      <g transform="translate(328.028967 354.05625)rotate(-90)scale(0.1 -0.1)">
       <defs>
        <path id="DejaVuSans-4c" d="M 628 4666 
L 1259 4666 
L 1259 531 
L 3531 531 
L 3531 0 
L 628 0 
L 628 4666 
z
" transform="scale(0.015625)"/>
        <path id="DejaVuSans-53" d="M 3425 4513 
L 3425 3897 
Q 3066 4069 2747 4153 
Q 2428 4238 2131 4238 
Q 1616 4238 1336 4038 
Q 1056 3838 1056 3469 
Q 1056 3159 1242 3001 
Q 1428 2844 1947 2747 
L 2328 2669 
Q 3034 2534 3370 2195 
Q 3706 1856 3706 1288 
Q 3706 609 3251 259 
Q 2797 -91 1919 -91 
Q 1588 -91 1214 -16 
Q 841 59 441 206 
L 441 856 
Q 825 641 1194 531 
Q 1563 422 1919 422 
Q 2459 422 2753 634 
Q 3047 847 3047 1241 
Q 3047 1584 2836 1778 
Q 2625 1972 2144 2069 
L 1759 2144 
Q 1053 2284 737 2584 
Q 422 2884 422 3419 
Q 422 4038 858 4394 
Q 1294 4750 2059 4750 
Q 2388 4750 2728 4690 
Q 3069 4631 3425 4513 
z
" transform="scale(0.015625)"/>
        <path id="DejaVuSans-54" d="M -19 4666 
L 3928 4666 
L 3928 4134 
L 2272 4134 
L 2272 0 
L 1638 0 
L 1638 4134 
L -19 4134 
L -19 4666 
z
" transform="scale(0.015625)"/>
        <path id="DejaVuSans-4d" d="M 628 4666 
L 1569 4666 
L 2759 1491 
L 3956 4666 
L 4897 4666 
L 4897 0 
L 4281 0 
L 4281 4097 
L 3078 897 
L 2444 897 
L 1241 4097 
L 1241 0 
L 628 0 
L 628 4666 
z
" transform="scale(0.015625)"/>
       </defs>
       <use xlink:href="#DejaVuSans-4c"/>
       <use xlink:href="#DejaVuSans-53" x="55.712891"/>
       <use xlink:href="#DejaVuSans-54" x="119.189453"/>
       <use xlink:href="#DejaVuSans-4d" x="180.273438"/>
      </g>
     </g>
    </g>
    <g id="xtick_4">
     <g id="line2d_4">
      <g>
       <use xlink:href="#m4c8fda8836" x="412.730408" y="320.4" style="stroke: #000000; stroke-width: 0.8"/>
      </g>
     </g>
     <g id="text_4">
      <!-- LSTM -->
      <g transform="translate(415.489783 354.05625)rotate(-90)scale(0.1 -0.1)">
       <use xlink:href="#DejaVuSans-4c"/>
       <use xlink:href="#DejaVuSans-53" x="55.712891"/>
       <use xlink:href="#DejaVuSans-54" x="119.189453"/>
       <use xlink:href="#DejaVuSans-4d" x="180.273438"/>
      </g>
     </g>
    </g>
    <g id="xtick_5">
     <g id="line2d_5">
      <g>
       <use xlink:href="#m4c8fda8836" x="500.191223" y="320.4" style="stroke: #000000; stroke-width: 0.8"/>
      </g>
     </g>
     <g id="text_5">
      <!-- SVM -->
      <g transform="translate(502.950598 349.217188)rotate(-90)scale(0.1 -0.1)">
       <defs>
        <path id="DejaVuSans-56" d="M 1831 0 
L 50 4666 
L 709 4666 
L 2188 738 
L 3669 4666 
L 4325 4666 
L 2547 0 
L 1831 0 
z
" transform="scale(0.015625)"/>
       </defs>
       <use xlink:href="#DejaVuSans-53"/>
       <use xlink:href="#DejaVuSans-56" x="63.476562"/>
       <use xlink:href="#DejaVuSans-4d" x="131.884766"/>
      </g>
     </g>
    </g>
    <g id="xtick_6">
     <g id="line2d_6">
      <g>
       <use xlink:href="#m4c8fda8836" x="587.652038" y="320.4" style="stroke: #000000; stroke-width: 0.8"/>
      </g>
     </g>
     <g id="text_6">
      <!-- XGBOOST -->
      <g transform="translate(590.411413 376.884375)rotate(-90)scale(0.1 -0.1)">
       <defs>
        <path id="DejaVuSans-58" d="M 403 4666 
L 1081 4666 
L 2241 2931 
L 3406 4666 
L 4084 4666 
L 2584 2425 
L 4184 0 
L 3506 0 
L 2194 1984 
L 872 0 
L 191 0 
L 1856 2491 
L 403 4666 
z
" transform="scale(0.015625)"/>
        <path id="DejaVuSans-47" d="M 3809 666 
L 3809 1919 
L 2778 1919 
L 2778 2438 
L 4434 2438 
L 4434 434 
Q 4069 175 3628 42 
Q 3188 -91 2688 -91 
Q 1594 -91 976 548 
Q 359 1188 359 2328 
Q 359 3472 976 4111 
Q 1594 4750 2688 4750 
Q 3144 4750 3555 4637 
Q 3966 4525 4313 4306 
L 4313 3634 
Q 3963 3931 3569 4081 
Q 3175 4231 2741 4231 
Q 1884 4231 1454 3753 
Q 1025 3275 1025 2328 
Q 1025 1384 1454 906 
Q 1884 428 2741 428 
Q 3075 428 3337 486 
Q 3600 544 3809 666 
z
" transform="scale(0.015625)"/>
        <path id="DejaVuSans-42" d="M 1259 2228 
L 1259 519 
L 2272 519 
Q 2781 519 3026 730 
Q 3272 941 3272 1375 
Q 3272 1813 3026 2020 
Q 2781 2228 2272 2228 
L 1259 2228 
z
M 1259 4147 
L 1259 2741 
L 2194 2741 
Q 2656 2741 2882 2914 
Q 3109 3088 3109 3444 
Q 3109 3797 2882 3972 
Q 2656 4147 2194 4147 
L 1259 4147 
z
M 628 4666 
L 2241 4666 
Q 2963 4666 3353 4366 
Q 3744 4066 3744 3513 
Q 3744 3084 3544 2831 
Q 3344 2578 2956 2516 
Q 3422 2416 3680 2098 
Q 3938 1781 3938 1306 
Q 3938 681 3513 340 
Q 3088 0 2303 0 
L 628 0 
L 628 4666 
z
" transform="scale(0.015625)"/>
        <path id="DejaVuSans-4f" d="M 2522 4238 
Q 1834 4238 1429 3725 
Q 1025 3213 1025 2328 
Q 1025 1447 1429 934 
Q 1834 422 2522 422 
Q 3209 422 3611 934 
Q 4013 1447 4013 2328 
Q 4013 3213 3611 3725 
Q 3209 4238 2522 4238 
z
M 2522 4750 
Q 3503 4750 4090 4092 
Q 4678 3434 4678 2328 
Q 4678 1225 4090 567 
Q 3503 -91 2522 -91 
Q 1538 -91 948 565 
Q 359 1222 359 2328 
Q 359 3434 948 4092 
Q 1538 4750 2522 4750 
z
" transform="scale(0.015625)"/>
       </defs>
       <use xlink:href="#DejaVuSans-58"/>
       <use xlink:href="#DejaVuSans-47" x="68.505859"/>
       <use xlink:href="#DejaVuSans-42" x="145.996094"/>
       <use xlink:href="#DejaVuSans-4f" x="212.849609"/>
       <use xlink:href="#DejaVuSans-4f" x="291.560547"/>
       <use xlink:href="#DejaVuSans-53" x="370.271484"/>
       <use xlink:href="#DejaVuSans-54" x="433.748047"/>
      </g>
     </g>
    </g>
   </g>
   <g id="matplotlib.axis_2">
    <g id="ytick_1">
     <g id="line2d_7">
      <defs>
       <path id="m4f715f47d1" d="M 0 0 
L -3.5 0 
" style="stroke: #000000; stroke-width: 0.8"/>
      </defs>
      <g>
       <use xlink:href="#m4f715f47d1" x="90" y="320.4" style="stroke: #000000; stroke-width: 0.8"/>
      </g>
     </g>
     <g id="text_7">
      <!-- 0.0 -->
      <g transform="translate(67.096875 324.199219)scale(0.1 -0.1)">
       <defs>
        <path id="DejaVuSans-30" d="M 2034 4250 
Q 1547 4250 1301 3770 
Q 1056 3291 1056 2328 
Q 1056 1369 1301 889 
Q 1547 409 2034 409 
Q 2525 409 2770 889 
Q 3016 1369 3016 2328 
Q 3016 3291 2770 3770 
Q 2525 4250 2034 4250 
z
M 2034 4750 
Q 2819 4750 3233 4129 
Q 3647 3509 3647 2328 
Q 3647 1150 3233 529 
Q 2819 -91 2034 -91 
Q 1250 -91 836 529 
Q 422 1150 422 2328 
Q 422 3509 836 4129 
Q 1250 4750 2034 4750 
z
" transform="scale(0.015625)"/>
        <path id="DejaVuSans-2e" d="M 684 794 
L 1344 794 
L 1344 0 
L 684 0 
L 684 794 
z
" transform="scale(0.015625)"/>
       </defs>
       <use xlink:href="#DejaVuSans-30"/>
       <use xlink:href="#DejaVuSans-2e" x="63.623047"/>
       <use xlink:href="#DejaVuSans-30" x="95.410156"/>
      </g>
     </g>
    </g>
    <g id="ytick_2">
     <g id="line2d_8">
      <g>
       <use xlink:href="#m4f715f47d1" x="90" y="287.675954" style="stroke: #000000; stroke-width: 0.8"/>
      </g>
     </g>
     <g id="text_8">
      <!-- 0.1 -->
      <g transform="translate(67.096875 291.475173)scale(0.1 -0.1)">
       <use xlink:href="#DejaVuSans-30"/>
       <use xlink:href="#DejaVuSans-2e" x="63.623047"/>
       <use xlink:href="#DejaVuSans-31" x="95.410156"/>
      </g>
     </g>
    </g>
    <g id="ytick_3">
     <g id="line2d_9">
      <g>
       <use xlink:href="#m4f715f47d1" x="90" y="254.951909" style="stroke: #000000; stroke-width: 0.8"/>
      </g>
     </g>
     <g id="text_9">
      <!-- 0.2 -->
      <g transform="translate(67.096875 258.751127)scale(0.1 -0.1)">
       <use xlink:href="#DejaVuSans-30"/>
       <use xlink:href="#DejaVuSans-2e" x="63.623047"/>
       <use xlink:href="#DejaVuSans-32" x="95.410156"/>
      </g>
     </g>
    </g>
    <g id="ytick_4">
     <g id="line2d_10">
      <g>
       <use xlink:href="#m4f715f47d1" x="90" y="222.227863" style="stroke: #000000; stroke-width: 0.8"/>
      </g>
     </g>
     <g id="text_10">
      <!-- 0.3 -->
      <g transform="translate(67.096875 226.027082)scale(0.1 -0.1)">
       <defs>
        <path id="DejaVuSans-33" d="M 2597 2516 
Q 3050 2419 3304 2112 
Q 3559 1806 3559 1356 
Q 3559 666 3084 287 
Q 2609 -91 1734 -91 
Q 1441 -91 1130 -33 
Q 819 25 488 141 
L 488 750 
Q 750 597 1062 519 
Q 1375 441 1716 441 
Q 2309 441 2620 675 
Q 2931 909 2931 1356 
Q 2931 1769 2642 2001 
Q 2353 2234 1838 2234 
L 1294 2234 
L 1294 2753 
L 1863 2753 
Q 2328 2753 2575 2939 
Q 2822 3125 2822 3475 
Q 2822 3834 2567 4026 
Q 2313 4219 1838 4219 
Q 1578 4219 1281 4162 
Q 984 4106 628 3988 
L 628 4550 
Q 988 4650 1302 4700 
Q 1616 4750 1894 4750 
Q 2613 4750 3031 4423 
Q 3450 4097 3450 3541 
Q 3450 3153 3228 2886 
Q 3006 2619 2597 2516 
z
" transform="scale(0.015625)"/>
       </defs>
       <use xlink:href="#DejaVuSans-30"/>
       <use xlink:href="#DejaVuSans-2e" x="63.623047"/>
       <use xlink:href="#DejaVuSans-33" x="95.410156"/>
      </g>
     </g>
    </g>
    <g id="ytick_5">
     <g id="line2d_11">
      <g>
       <use xlink:href="#m4f715f47d1" x="90" y="189.503817" style="stroke: #000000; stroke-width: 0.8"/>
      </g>
     </g>
     <g id="text_11">
      <!-- 0.4 -->
      <g transform="translate(67.096875 193.303036)scale(0.1 -0.1)">
       <defs>
        <path id="DejaVuSans-34" d="M 2419 4116 
L 825 1625 
L 2419 1625 
L 2419 4116 
z
M 2253 4666 
L 3047 4666 
L 3047 1625 
L 3713 1625 
L 3713 1100 
L 3047 1100 
L 3047 0 
L 2419 0 
L 2419 1100 
L 313 1100 
L 313 1709 
L 2253 4666 
z
" transform="scale(0.015625)"/>
       </defs>
       <use xlink:href="#DejaVuSans-30"/>
       <use xlink:href="#DejaVuSans-2e" x="63.623047"/>
       <use xlink:href="#DejaVuSans-34" x="95.410156"/>
      </g>
     </g>
    </g>
    <g id="ytick_6">
     <g id="line2d_12">
      <g>
       <use xlink:href="#m4f715f47d1" x="90" y="156.779772" style="stroke: #000000; stroke-width: 0.8"/>
      </g>
     </g>
     <g id="text_12">
      <!-- 0.5 -->
      <g transform="translate(67.096875 160.57899)scale(0.1 -0.1)">
       <defs>
        <path id="DejaVuSans-35" d="M 691 4666 
L 3169 4666 
L 3169 4134 
L 1269 4134 
L 1269 2991 
Q 1406 3038 1543 3061 
Q 1681 3084 1819 3084 
Q 2600 3084 3056 2656 
Q 3513 2228 3513 1497 
Q 3513 744 3044 326 
Q 2575 -91 1722 -91 
Q 1428 -91 1123 -41 
Q 819 9 494 109 
L 494 744 
Q 775 591 1075 516 
Q 1375 441 1709 441 
Q 2250 441 2565 725 
Q 2881 1009 2881 1497 
Q 2881 1984 2565 2268 
Q 2250 2553 1709 2553 
Q 1456 2553 1204 2497 
Q 953 2441 691 2322 
L 691 4666 
z
" transform="scale(0.015625)"/>
       </defs>
       <use xlink:href="#DejaVuSans-30"/>
       <use xlink:href="#DejaVuSans-2e" x="63.623047"/>
       <use xlink:href="#DejaVuSans-35" x="95.410156"/>
      </g>
     </g>
    </g>
    <g id="ytick_7">
     <g id="line2d_13">
      <g>
       <use xlink:href="#m4f715f47d1" x="90" y="124.055726" style="stroke: #000000; stroke-width: 0.8"/>
      </g>
     </g>
     <g id="text_13">
      <!-- 0.6 -->
      <g transform="translate(67.096875 127.854945)scale(0.1 -0.1)">
       <defs>
        <path id="DejaVuSans-36" d="M 2113 2584 
Q 1688 2584 1439 2293 
Q 1191 2003 1191 1497 
Q 1191 994 1439 701 
Q 1688 409 2113 409 
Q 2538 409 2786 701 
Q 3034 994 3034 1497 
Q 3034 2003 2786 2293 
Q 2538 2584 2113 2584 
z
M 3366 4563 
L 3366 3988 
Q 3128 4100 2886 4159 
Q 2644 4219 2406 4219 
Q 1781 4219 1451 3797 
Q 1122 3375 1075 2522 
Q 1259 2794 1537 2939 
Q 1816 3084 2150 3084 
Q 2853 3084 3261 2657 
Q 3669 2231 3669 1497 
Q 3669 778 3244 343 
Q 2819 -91 2113 -91 
Q 1303 -91 875 529 
Q 447 1150 447 2328 
Q 447 3434 972 4092 
Q 1497 4750 2381 4750 
Q 2619 4750 2861 4703 
Q 3103 4656 3366 4563 
z
" transform="scale(0.015625)"/>
       </defs>
       <use xlink:href="#DejaVuSans-30"/>
       <use xlink:href="#DejaVuSans-2e" x="63.623047"/>
       <use xlink:href="#DejaVuSans-36" x="95.410156"/>
      </g>
     </g>
    </g>
    <g id="ytick_8">
     <g id="line2d_14">
      <g>
       <use xlink:href="#m4f715f47d1" x="90" y="91.33168" style="stroke: #000000; stroke-width: 0.8"/>
      </g>
     </g>
     <g id="text_14">
      <!-- 0.7 -->
      <g transform="translate(67.096875 95.130899)scale(0.1 -0.1)">
       <defs>
        <path id="DejaVuSans-37" d="M 525 4666 
L 3525 4666 
L 3525 4397 
L 1831 0 
L 1172 0 
L 2766 4134 
L 525 4134 
L 525 4666 
z
" transform="scale(0.015625)"/>
       </defs>
       <use xlink:href="#DejaVuSans-30"/>
       <use xlink:href="#DejaVuSans-2e" x="63.623047"/>
       <use xlink:href="#DejaVuSans-37" x="95.410156"/>
      </g>
     </g>
    </g>
    <g id="ytick_9">
     <g id="line2d_15">
      <g>
       <use xlink:href="#m4f715f47d1" x="90" y="58.607635" style="stroke: #000000; stroke-width: 0.8"/>
      </g>
     </g>
     <g id="text_15">
      <!-- 0.8 -->
      <g transform="translate(67.096875 62.406853)scale(0.1 -0.1)">
       <defs>
        <path id="DejaVuSans-38" d="M 2034 2216 
Q 1584 2216 1326 1975 
Q 1069 1734 1069 1313 
Q 1069 891 1326 650 
Q 1584 409 2034 409 
Q 2484 409 2743 651 
Q 3003 894 3003 1313 
Q 3003 1734 2745 1975 
Q 2488 2216 2034 2216 
z
M 1403 2484 
Q 997 2584 770 2862 
Q 544 3141 544 3541 
Q 544 4100 942 4425 
Q 1341 4750 2034 4750 
Q 2731 4750 3128 4425 
Q 3525 4100 3525 3541 
Q 3525 3141 3298 2862 
Q 3072 2584 2669 2484 
Q 3125 2378 3379 2068 
Q 3634 1759 3634 1313 
Q 3634 634 3220 271 
Q 2806 -91 2034 -91 
Q 1263 -91 848 271 
Q 434 634 434 1313 
Q 434 1759 690 2068 
Q 947 2378 1403 2484 
z
M 1172 3481 
Q 1172 3119 1398 2916 
Q 1625 2713 2034 2713 
Q 2441 2713 2670 2916 
Q 2900 3119 2900 3481 
Q 2900 3844 2670 4047 
Q 2441 4250 2034 4250 
Q 1625 4250 1398 4047 
Q 1172 3844 1172 3481 
z
" transform="scale(0.015625)"/>
       </defs>
       <use xlink:href="#DejaVuSans-30"/>
       <use xlink:href="#DejaVuSans-2e" x="63.623047"/>
       <use xlink:href="#DejaVuSans-38" x="95.410156"/>
      </g>
     </g>
    </g>
    <g id="text_16">
     <!-- F1 -->
     <g transform="translate(61.017187 187.857031)rotate(-90)scale(0.1 -0.1)">
      <defs>
       <path id="DejaVuSans-46" d="M 628 4666 
L 3309 4666 
L 3309 4134 
L 1259 4134 
L 1259 2759 
L 3109 2759 
L 3109 2228 
L 1259 2228 
L 1259 0 
L 628 0 
L 628 4666 
z
" transform="scale(0.015625)"/>
      </defs>
      <use xlink:href="#DejaVuSans-46"/>
      <use xlink:href="#DejaVuSans-31" x="57.519531"/>
     </g>
    </g>
   </g>
   <g id="line2d_16">
    <defs>
     <path id="mc65ae4baa8" d="M 0 1.5 
C 0.397805 1.5 0.77937 1.341951 1.06066 1.06066 
C 1.341951 0.77937 1.5 0.397805 1.5 0 
C 1.5 -0.397805 1.341951 -0.77937 1.06066 -1.06066 
C 0.77937 -1.341951 0.397805 -1.5 0 -1.5 
C -0.397805 -1.5 -0.77937 -1.341951 -1.06066 -1.06066 
C -1.341951 -0.77937 -1.5 -0.397805 -1.5 0 
C -1.5 0.397805 -1.341951 0.77937 -1.06066 1.06066 
C -0.77937 1.341951 -0.397805 1.5 0 1.5 
z
" style="stroke: #1f77b4"/>
    </defs>
    <g clip-path="url(#p53b7a9c235)">
     <use xlink:href="#mc65ae4baa8" x="150.347962" y="84.687524" style="fill: #1f77b4; stroke: #1f77b4"/>
     <use xlink:href="#mc65ae4baa8" x="237.808777" y="80.430178" style="fill: #1f77b4; stroke: #1f77b4"/>
     <use xlink:href="#mc65ae4baa8" x="325.269592" y="70.165874" style="fill: #1f77b4; stroke: #1f77b4"/>
     <use xlink:href="#mc65ae4baa8" x="412.730408" y="72.104161" style="fill: #1f77b4; stroke: #1f77b4"/>
     <use xlink:href="#mc65ae4baa8" x="500.191223" y="139.64214" style="fill: #1f77b4; stroke: #1f77b4"/>
     <use xlink:href="#mc65ae4baa8" x="587.652038" y="105.618089" style="fill: #1f77b4; stroke: #1f77b4"/>
    </g>
   </g>
   <g id="line2d_17">
    <defs>
     <path id="m436d034e53" d="M 0 1.5 
C 0.397805 1.5 0.77937 1.341951 1.06066 1.06066 
C 1.341951 0.77937 1.5 0.397805 1.5 0 
C 1.5 -0.397805 1.341951 -0.77937 1.06066 -1.06066 
C 0.77937 -1.341951 0.397805 -1.5 0 -1.5 
C -0.397805 -1.5 -0.77937 -1.341951 -1.06066 -1.06066 
C -1.341951 -0.77937 -1.5 -0.397805 -1.5 0 
C -1.5 0.397805 -1.341951 0.77937 -1.06066 1.06066 
C -0.77937 1.341951 -0.397805 1.5 0 1.5 
z
" style="stroke: #ff7f0e"/>
    </defs>
    <g clip-path="url(#p53b7a9c235)">
     <use xlink:href="#m436d034e53" x="150.347962" y="91.95427" style="fill: #ff7f0e; stroke: #ff7f0e"/>
     <use xlink:href="#m436d034e53" x="237.808777" y="172.389724" style="fill: #ff7f0e; stroke: #ff7f0e"/>
     <use xlink:href="#m436d034e53" x="325.269592" y="87.876249" style="fill: #ff7f0e; stroke: #ff7f0e"/>
     <use xlink:href="#m436d034e53" x="412.730408" y="89.070898" style="fill: #ff7f0e; stroke: #ff7f0e"/>
     <use xlink:href="#m436d034e53" x="500.191223" y="110.137131" style="fill: #ff7f0e; stroke: #ff7f0e"/>
     <use xlink:href="#m436d034e53" x="587.652038" y="120.323797" style="fill: #ff7f0e; stroke: #ff7f0e"/>
    </g>
   </g>
   <g id="line2d_18">
    <defs>
     <path id="m3d644a8691" d="M 0 1.5 
C 0.397805 1.5 0.77937 1.341951 1.06066 1.06066 
C 1.341951 0.77937 1.5 0.397805 1.5 0 
C 1.5 -0.397805 1.341951 -0.77937 1.06066 -1.06066 
C 0.77937 -1.341951 0.397805 -1.5 0 -1.5 
C -0.397805 -1.5 -0.77937 -1.341951 -1.06066 -1.06066 
C -1.341951 -0.77937 -1.5 -0.397805 -1.5 0 
C -1.5 0.397805 -1.341951 0.77937 -1.06066 1.06066 
C -0.77937 1.341951 -0.397805 1.5 0 1.5 
z
" style="stroke: #2ca02c"/>
    </defs>
    <g clip-path="url(#p53b7a9c235)">
     <use xlink:href="#m3d644a8691" x="150.347962" y="138.359041" style="fill: #2ca02c; stroke: #2ca02c"/>
     <use xlink:href="#m3d644a8691" x="237.808777" y="164.921388" style="fill: #2ca02c; stroke: #2ca02c"/>
     <use xlink:href="#m3d644a8691" x="325.269592" y="123.898723" style="fill: #2ca02c; stroke: #2ca02c"/>
     <use xlink:href="#m3d644a8691" x="412.730408" y="134.41854" style="fill: #2ca02c; stroke: #2ca02c"/>
     <use xlink:href="#m3d644a8691" x="500.191223" y="169.411009" style="fill: #2ca02c; stroke: #2ca02c"/>
     <use xlink:href="#m3d644a8691" x="587.652038" y="164.163655" style="fill: #2ca02c; stroke: #2ca02c"/>
    </g>
   </g>
   <g id="line2d_19">
    <defs>
     <path id="me9ac9eab19" d="M 0 1.5 
C 0.397805 1.5 0.77937 1.341951 1.06066 1.06066 
C 1.341951 0.77937 1.5 0.397805 1.5 0 
C 1.5 -0.397805 1.341951 -0.77937 1.06066 -1.06066 
C 0.77937 -1.341951 0.397805 -1.5 0 -1.5 
C -0.397805 -1.5 -0.77937 -1.341951 -1.06066 -1.06066 
C -1.341951 -0.77937 -1.5 -0.397805 -1.5 0 
C -1.5 0.397805 -1.341951 0.77937 -1.06066 1.06066 
C -0.77937 1.341951 -0.397805 1.5 0 1.5 
z
" style="stroke: #d62728"/>
    </defs>
    <g clip-path="url(#p53b7a9c235)">
     <use xlink:href="#me9ac9eab19" x="150.347962" y="63.718846" style="fill: #d62728; stroke: #d62728"/>
     <use xlink:href="#me9ac9eab19" x="237.808777" y="89.140491" style="fill: #d62728; stroke: #d62728"/>
     <use xlink:href="#me9ac9eab19" x="325.269592" y="59.094562" style="fill: #d62728; stroke: #d62728"/>
     <use xlink:href="#me9ac9eab19" x="412.730408" y="56.4" style="fill: #d62728; stroke: #d62728"/>
     <use xlink:href="#me9ac9eab19" x="500.191223" y="106.734304" style="fill: #d62728; stroke: #d62728"/>
     <use xlink:href="#me9ac9eab19" x="587.652038" y="106.057784" style="fill: #d62728; stroke: #d62728"/>
    </g>
   </g>
   <g id="line2d_20">
    <defs>
     <path id="m53fcea1525" d="M 0 1.5 
C 0.397805 1.5 0.77937 1.341951 1.06066 1.06066 
C 1.341951 0.77937 1.5 0.397805 1.5 0 
C 1.5 -0.397805 1.341951 -0.77937 1.06066 -1.06066 
C 0.77937 -1.341951 0.397805 -1.5 0 -1.5 
C -0.397805 -1.5 -0.77937 -1.341951 -1.06066 -1.06066 
C -1.341951 -0.77937 -1.5 -0.397805 -1.5 0 
C -1.5 0.397805 -1.341951 0.77937 -1.06066 1.06066 
C -0.77937 1.341951 -0.397805 1.5 0 1.5 
z
" style="stroke: #9467bd"/>
    </defs>
    <g clip-path="url(#p53b7a9c235)">
     <use xlink:href="#m53fcea1525" x="150.347962" y="104.637062" style="fill: #9467bd; stroke: #9467bd"/>
     <use xlink:href="#m53fcea1525" x="237.808777" y="89.117919" style="fill: #9467bd; stroke: #9467bd"/>
     <use xlink:href="#m53fcea1525" x="325.269592" y="73.843575" style="fill: #9467bd; stroke: #9467bd"/>
     <use xlink:href="#m53fcea1525" x="412.730408" y="76.215497" style="fill: #9467bd; stroke: #9467bd"/>
     <use xlink:href="#m53fcea1525" x="500.191223" y="140.492078" style="fill: #9467bd; stroke: #9467bd"/>
     <use xlink:href="#m53fcea1525" x="587.652038" y="111.982062" style="fill: #9467bd; stroke: #9467bd"/>
    </g>
   </g>
   <g id="line2d_21">
    <defs>
     <path id="m1aef3127a5" d="M 0 1.5 
C 0.397805 1.5 0.77937 1.341951 1.06066 1.06066 
C 1.341951 0.77937 1.5 0.397805 1.5 0 
C 1.5 -0.397805 1.341951 -0.77937 1.06066 -1.06066 
C 0.77937 -1.341951 0.397805 -1.5 0 -1.5 
C -0.397805 -1.5 -0.77937 -1.341951 -1.06066 -1.06066 
C -1.341951 -0.77937 -1.5 -0.397805 -1.5 0 
C -1.5 0.397805 -1.341951 0.77937 -1.06066 1.06066 
C -0.77937 1.341951 -0.397805 1.5 0 1.5 
z
" style="stroke: #8c564b"/>
    </defs>
    <g clip-path="url(#p53b7a9c235)">
     <use xlink:href="#m1aef3127a5" x="150.347962" y="120.598754" style="fill: #8c564b; stroke: #8c564b"/>
     <use xlink:href="#m1aef3127a5" x="237.808777" y="157.00178" style="fill: #8c564b; stroke: #8c564b"/>
     <use xlink:href="#m1aef3127a5" x="325.269592" y="126.658122" style="fill: #8c564b; stroke: #8c564b"/>
     <use xlink:href="#m1aef3127a5" x="412.730408" y="119.031218" style="fill: #8c564b; stroke: #8c564b"/>
     <use xlink:href="#m1aef3127a5" x="500.191223" y="142.559542" style="fill: #8c564b; stroke: #8c564b"/>
     <use xlink:href="#m1aef3127a5" x="587.652038" y="144.279105" style="fill: #8c564b; stroke: #8c564b"/>
    </g>
   </g>
   <g id="line2d_22">
    <defs>
     <path id="mad1926b48f" d="M 0 1.5 
C 0.397805 1.5 0.77937 1.341951 1.06066 1.06066 
C 1.341951 0.77937 1.5 0.397805 1.5 0 
C 1.5 -0.397805 1.341951 -0.77937 1.06066 -1.06066 
C 0.77937 -1.341951 0.397805 -1.5 0 -1.5 
C -0.397805 -1.5 -0.77937 -1.341951 -1.06066 -1.06066 
C -1.341951 -0.77937 -1.5 -0.397805 -1.5 0 
C -1.5 0.397805 -1.341951 0.77937 -1.06066 1.06066 
C -0.77937 1.341951 -0.397805 1.5 0 1.5 
z
" style="stroke: #e377c2"/>
    </defs>
    <g clip-path="url(#p53b7a9c235)">
     <use xlink:href="#mad1926b48f" x="150.347962" y="90.694392" style="fill: #e377c2; stroke: #e377c2"/>
     <use xlink:href="#mad1926b48f" x="237.808777" y="145.528183" style="fill: #e377c2; stroke: #e377c2"/>
     <use xlink:href="#mad1926b48f" x="325.269592" y="85.976951" style="fill: #e377c2; stroke: #e377c2"/>
     <use xlink:href="#mad1926b48f" x="412.730408" y="90.450983" style="fill: #e377c2; stroke: #e377c2"/>
     <use xlink:href="#mad1926b48f" x="500.191223" y="114.405967" style="fill: #e377c2; stroke: #e377c2"/>
     <use xlink:href="#mad1926b48f" x="587.652038" y="112.995377" style="fill: #e377c2; stroke: #e377c2"/>
    </g>
   </g>
   <g id="line2d_23">
    <defs>
     <path id="m447f9b831e" d="M 0 1.5 
C 0.397805 1.5 0.77937 1.341951 1.06066 1.06066 
C 1.341951 0.77937 1.5 0.397805 1.5 0 
C 1.5 -0.397805 1.341951 -0.77937 1.06066 -1.06066 
C 0.77937 -1.341951 0.397805 -1.5 0 -1.5 
C -0.397805 -1.5 -0.77937 -1.341951 -1.06066 -1.06066 
C -1.341951 -0.77937 -1.5 -0.397805 -1.5 0 
C -1.5 0.397805 -1.341951 0.77937 -1.06066 1.06066 
C -0.77937 1.341951 -0.397805 1.5 0 1.5 
z
" style="stroke: #7f7f7f"/>
    </defs>
    <g clip-path="url(#p53b7a9c235)">
     <use xlink:href="#m447f9b831e" x="150.347962" y="102.53546" style="fill: #7f7f7f; stroke: #7f7f7f"/>
     <use xlink:href="#m447f9b831e" x="237.808777" y="161.303645" style="fill: #7f7f7f; stroke: #7f7f7f"/>
     <use xlink:href="#m447f9b831e" x="325.269592" y="89.657653" style="fill: #7f7f7f; stroke: #7f7f7f"/>
     <use xlink:href="#m447f9b831e" x="412.730408" y="97.299955" style="fill: #7f7f7f; stroke: #7f7f7f"/>
     <use xlink:href="#m447f9b831e" x="500.191223" y="132.323925" style="fill: #7f7f7f; stroke: #7f7f7f"/>
     <use xlink:href="#m447f9b831e" x="587.652038" y="138.084897" style="fill: #7f7f7f; stroke: #7f7f7f"/>
    </g>
   </g>
   <g id="line2d_24">
    <defs>
     <path id="m40f8adce61" d="M 0 1.5 
C 0.397805 1.5 0.77937 1.341951 1.06066 1.06066 
C 1.341951 0.77937 1.5 0.397805 1.5 0 
C 1.5 -0.397805 1.341951 -0.77937 1.06066 -1.06066 
C 0.77937 -1.341951 0.397805 -1.5 0 -1.5 
C -0.397805 -1.5 -0.77937 -1.341951 -1.06066 -1.06066 
C -1.341951 -0.77937 -1.5 -0.397805 -1.5 0 
C -1.5 0.397805 -1.341951 0.77937 -1.06066 1.06066 
C -0.77937 1.341951 -0.397805 1.5 0 1.5 
z
" style="stroke: #bcbd22"/>
    </defs>
    <g clip-path="url(#p53b7a9c235)">
     <use xlink:href="#m40f8adce61" x="150.347962" y="130.583063" style="fill: #bcbd22; stroke: #bcbd22"/>
     <use xlink:href="#m40f8adce61" x="237.808777" y="209.190682" style="fill: #bcbd22; stroke: #bcbd22"/>
     <use xlink:href="#m40f8adce61" x="325.269592" y="129.522968" style="fill: #bcbd22; stroke: #bcbd22"/>
     <use xlink:href="#m40f8adce61" x="412.730408" y="123.500819" style="fill: #bcbd22; stroke: #bcbd22"/>
     <use xlink:href="#m40f8adce61" x="500.191223" y="137.566712" style="fill: #bcbd22; stroke: #bcbd22"/>
     <use xlink:href="#m40f8adce61" x="587.652038" y="144.684234" style="fill: #bcbd22; stroke: #bcbd22"/>
    </g>
   </g>
   <g id="line2d_25">
    <defs>
     <path id="mea30b61eb3" d="M 0 1.5 
C 0.397805 1.5 0.77937 1.341951 1.06066 1.06066 
C 1.341951 0.77937 1.5 0.397805 1.5 0 
C 1.5 -0.397805 1.341951 -0.77937 1.06066 -1.06066 
C 0.77937 -1.341951 0.397805 -1.5 0 -1.5 
C -0.397805 -1.5 -0.77937 -1.341951 -1.06066 -1.06066 
C -1.341951 -0.77937 -1.5 -0.397805 -1.5 0 
C -1.5 0.397805 -1.341951 0.77937 -1.06066 1.06066 
C -0.77937 1.341951 -0.397805 1.5 0 1.5 
z
" style="stroke: #17becf"/>
    </defs>
    <g clip-path="url(#p53b7a9c235)">
     <use xlink:href="#mea30b61eb3" x="150.347962" y="105.877926" style="fill: #17becf; stroke: #17becf"/>
     <use xlink:href="#mea30b61eb3" x="237.808777" y="147.151059" style="fill: #17becf; stroke: #17becf"/>
     <use xlink:href="#mea30b61eb3" x="325.269592" y="96.509372" style="fill: #17becf; stroke: #17becf"/>
     <use xlink:href="#mea30b61eb3" x="412.730408" y="97.909654" style="fill: #17becf; stroke: #17becf"/>
     <use xlink:href="#mea30b61eb3" x="500.191223" y="116.84649" style="fill: #17becf; stroke: #17becf"/>
     <use xlink:href="#mea30b61eb3" x="587.652038" y="123.169264" style="fill: #17becf; stroke: #17becf"/>
    </g>
   </g>
   <g id="line2d_26">
    <g clip-path="url(#p53b7a9c235)">
     <use xlink:href="#mc65ae4baa8" x="150.347962" y="135.315371" style="fill: #1f77b4; stroke: #1f77b4"/>
     <use xlink:href="#mc65ae4baa8" x="237.808777" y="192.533659" style="fill: #1f77b4; stroke: #1f77b4"/>
     <use xlink:href="#mc65ae4baa8" x="325.269592" y="173.755308" style="fill: #1f77b4; stroke: #1f77b4"/>
     <use xlink:href="#mc65ae4baa8" x="412.730408" y="132.047425" style="fill: #1f77b4; stroke: #1f77b4"/>
     <use xlink:href="#mc65ae4baa8" x="500.191223" y="148.432968" style="fill: #1f77b4; stroke: #1f77b4"/>
     <use xlink:href="#mc65ae4baa8" x="587.652038" y="154.814539" style="fill: #1f77b4; stroke: #1f77b4"/>
    </g>
   </g>
   <g id="line2d_27">
    <g clip-path="url(#p53b7a9c235)">
     <use xlink:href="#m436d034e53" x="150.347962" y="96.422918" style="fill: #ff7f0e; stroke: #ff7f0e"/>
     <use xlink:href="#m436d034e53" x="237.808777" y="153.111157" style="fill: #ff7f0e; stroke: #ff7f0e"/>
     <use xlink:href="#m436d034e53" x="325.269592" y="113.415665" style="fill: #ff7f0e; stroke: #ff7f0e"/>
     <use xlink:href="#m436d034e53" x="412.730408" y="92.3578" style="fill: #ff7f0e; stroke: #ff7f0e"/>
     <use xlink:href="#m436d034e53" x="500.191223" y="95.059736" style="fill: #ff7f0e; stroke: #ff7f0e"/>
     <use xlink:href="#m436d034e53" x="587.652038" y="93.845598" style="fill: #ff7f0e; stroke: #ff7f0e"/>
    </g>
   </g>
   <g id="line2d_28">
    <g clip-path="url(#p53b7a9c235)">
     <use xlink:href="#m3d644a8691" x="150.347962" y="105.890914" style="fill: #2ca02c; stroke: #2ca02c"/>
     <use xlink:href="#m3d644a8691" x="237.808777" y="173.880275" style="fill: #2ca02c; stroke: #2ca02c"/>
     <use xlink:href="#m3d644a8691" x="325.269592" y="134.440168" style="fill: #2ca02c; stroke: #2ca02c"/>
     <use xlink:href="#m3d644a8691" x="412.730408" y="101.756742" style="fill: #2ca02c; stroke: #2ca02c"/>
     <use xlink:href="#m3d644a8691" x="500.191223" y="111.685275" style="fill: #2ca02c; stroke: #2ca02c"/>
     <use xlink:href="#m3d644a8691" x="587.652038" y="122.356658" style="fill: #2ca02c; stroke: #2ca02c"/>
    </g>
   </g>
   <g id="line2d_29">
    <g clip-path="url(#p53b7a9c235)">
     <use xlink:href="#me9ac9eab19" x="150.347962" y="107.260049" style="fill: #d62728; stroke: #d62728"/>
     <use xlink:href="#me9ac9eab19" x="237.808777" y="218.591858" style="fill: #d62728; stroke: #d62728"/>
     <use xlink:href="#me9ac9eab19" x="325.269592" y="131.877904" style="fill: #d62728; stroke: #d62728"/>
     <use xlink:href="#me9ac9eab19" x="412.730408" y="109.204589" style="fill: #d62728; stroke: #d62728"/>
     <use xlink:href="#me9ac9eab19" x="500.191223" y="123.466767" style="fill: #d62728; stroke: #d62728"/>
     <use xlink:href="#me9ac9eab19" x="587.652038" y="123.511333" style="fill: #d62728; stroke: #d62728"/>
    </g>
   </g>
   <g id="line2d_30">
    <g clip-path="url(#p53b7a9c235)">
     <use xlink:href="#m53fcea1525" x="150.347962" y="85.785527" style="fill: #9467bd; stroke: #9467bd"/>
     <use xlink:href="#m53fcea1525" x="237.808777" y="79.094091" style="fill: #9467bd; stroke: #9467bd"/>
     <use xlink:href="#m53fcea1525" x="325.269592" y="69.66113" style="fill: #9467bd; stroke: #9467bd"/>
     <use xlink:href="#m53fcea1525" x="412.730408" y="78.411175" style="fill: #9467bd; stroke: #9467bd"/>
     <use xlink:href="#m53fcea1525" x="500.191223" y="143.994777" style="fill: #9467bd; stroke: #9467bd"/>
     <use xlink:href="#m53fcea1525" x="587.652038" y="112.727213" style="fill: #9467bd; stroke: #9467bd"/>
    </g>
   </g>
   <g id="line2d_31">
    <g clip-path="url(#p53b7a9c235)">
     <use xlink:href="#m1aef3127a5" x="150.347962" y="85.158084" style="fill: #8c564b; stroke: #8c564b"/>
     <use xlink:href="#m1aef3127a5" x="237.808777" y="87.8127" style="fill: #8c564b; stroke: #8c564b"/>
     <use xlink:href="#m1aef3127a5" x="325.269592" y="71.650464" style="fill: #8c564b; stroke: #8c564b"/>
     <use xlink:href="#m1aef3127a5" x="412.730408" y="63.79006" style="fill: #8c564b; stroke: #8c564b"/>
     <use xlink:href="#m1aef3127a5" x="500.191223" y="141.886709" style="fill: #8c564b; stroke: #8c564b"/>
     <use xlink:href="#m1aef3127a5" x="587.652038" y="98.399863" style="fill: #8c564b; stroke: #8c564b"/>
    </g>
   </g>
   <g id="line2d_32">
    <g clip-path="url(#p53b7a9c235)">
     <use xlink:href="#mad1926b48f" x="150.347962" y="131.502043" style="fill: #e377c2; stroke: #e377c2"/>
     <use xlink:href="#mad1926b48f" x="237.808777" y="120.985707" style="fill: #e377c2; stroke: #e377c2"/>
     <use xlink:href="#mad1926b48f" x="325.269592" y="89.09106" style="fill: #e377c2; stroke: #e377c2"/>
     <use xlink:href="#mad1926b48f" x="412.730408" y="115.56372" style="fill: #e377c2; stroke: #e377c2"/>
     <use xlink:href="#mad1926b48f" x="500.191223" y="163.896564" style="fill: #e377c2; stroke: #e377c2"/>
     <use xlink:href="#mad1926b48f" x="587.652038" y="138.397406" style="fill: #e377c2; stroke: #e377c2"/>
    </g>
   </g>
   <g id="line2d_33">
    <g clip-path="url(#p53b7a9c235)">
     <use xlink:href="#m447f9b831e" x="150.347962" y="110.087189" style="fill: #7f7f7f; stroke: #7f7f7f"/>
     <use xlink:href="#m447f9b831e" x="237.808777" y="165.291807" style="fill: #7f7f7f; stroke: #7f7f7f"/>
     <use xlink:href="#m447f9b831e" x="325.269592" y="93.435497" style="fill: #7f7f7f; stroke: #7f7f7f"/>
     <use xlink:href="#m447f9b831e" x="412.730408" y="81.266087" style="fill: #7f7f7f; stroke: #7f7f7f"/>
     <use xlink:href="#m447f9b831e" x="500.191223" y="133.003088" style="fill: #7f7f7f; stroke: #7f7f7f"/>
     <use xlink:href="#m447f9b831e" x="587.652038" y="127.992196" style="fill: #7f7f7f; stroke: #7f7f7f"/>
    </g>
   </g>
   <g id="line2d_34">
    <g clip-path="url(#p53b7a9c235)">
     <use xlink:href="#m40f8adce61" x="150.347962" y="106.546321" style="fill: #bcbd22; stroke: #bcbd22"/>
     <use xlink:href="#m40f8adce61" x="237.808777" y="140.397771" style="fill: #bcbd22; stroke: #bcbd22"/>
     <use xlink:href="#m40f8adce61" x="325.269592" y="88.812192" style="fill: #bcbd22; stroke: #bcbd22"/>
     <use xlink:href="#m40f8adce61" x="412.730408" y="91.717174" style="fill: #bcbd22; stroke: #bcbd22"/>
     <use xlink:href="#m40f8adce61" x="500.191223" y="135.433001" style="fill: #bcbd22; stroke: #bcbd22"/>
     <use xlink:href="#m40f8adce61" x="587.652038" y="137.692328" style="fill: #bcbd22; stroke: #bcbd22"/>
    </g>
   </g>
   <g id="line2d_35">
    <g clip-path="url(#p53b7a9c235)">
     <use xlink:href="#mea30b61eb3" x="150.347962" y="126.472936" style="fill: #17becf; stroke: #17becf"/>
     <use xlink:href="#mea30b61eb3" x="237.808777" y="115.750355" style="fill: #17becf; stroke: #17becf"/>
     <use xlink:href="#mea30b61eb3" x="325.269592" y="103.816889" style="fill: #17becf; stroke: #17becf"/>
     <use xlink:href="#mea30b61eb3" x="412.730408" y="107.390202" style="fill: #17becf; stroke: #17becf"/>
     <use xlink:href="#mea30b61eb3" x="500.191223" y="138.224607" style="fill: #17becf; stroke: #17becf"/>
     <use xlink:href="#mea30b61eb3" x="587.652038" y="136.668241" style="fill: #17becf; stroke: #17becf"/>
    </g>
   </g>
   <g id="line2d_36">
    <g clip-path="url(#p53b7a9c235)">
     <use xlink:href="#mc65ae4baa8" x="150.347962" y="103.534339" style="fill: #1f77b4; stroke: #1f77b4"/>
     <use xlink:href="#mc65ae4baa8" x="237.808777" y="103.128332" style="fill: #1f77b4; stroke: #1f77b4"/>
     <use xlink:href="#mc65ae4baa8" x="325.269592" y="80.724829" style="fill: #1f77b4; stroke: #1f77b4"/>
     <use xlink:href="#mc65ae4baa8" x="412.730408" y="91.185065" style="fill: #1f77b4; stroke: #1f77b4"/>
     <use xlink:href="#mc65ae4baa8" x="500.191223" y="134.454545" style="fill: #1f77b4; stroke: #1f77b4"/>
     <use xlink:href="#mc65ae4baa8" x="587.652038" y="127.909655" style="fill: #1f77b4; stroke: #1f77b4"/>
    </g>
   </g>
   <g id="LineCollection_1">
    <path d="M 150.347962 115.488523 
L 150.347962 96.665956 
" clip-path="url(#p53b7a9c235)" style="fill: none; stroke: #ff7f0e"/>
    <path d="M 237.808777 161.863614 
L 237.808777 120.684268 
" clip-path="url(#p53b7a9c235)" style="fill: none; stroke: #ff7f0e"/>
    <path d="M 325.269592 113.545259 
L 325.269592 85.872375 
" clip-path="url(#p53b7a9c235)" style="fill: none; stroke: #ff7f0e"/>
    <path d="M 412.730408 106.601692 
L 412.730408 85.883238 
" clip-path="url(#p53b7a9c235)" style="fill: none; stroke: #ff7f0e"/>
    <path d="M 500.191223 141.3369 
L 500.191223 123.39237 
" clip-path="url(#p53b7a9c235)" style="fill: none; stroke: #ff7f0e"/>
    <path d="M 587.652038 134.940764 
L 587.652038 117.028121 
" clip-path="url(#p53b7a9c235)" style="fill: none; stroke: #ff7f0e"/>
   </g>
   <g id="line2d_37">
    <path d="M 150.347962 106.077239 
L 237.808777 141.273941 
L 325.269592 99.708817 
L 412.730408 96.242465 
L 500.191223 132.364635 
L 587.652038 125.984443 
" clip-path="url(#p53b7a9c235)" style="fill: none; stroke-dasharray: 5.55,2.4; stroke-dashoffset: 0; stroke: #ff7f0e; stroke-width: 1.5"/>
   </g>
   <g id="patch_9">
    <path d="M 90 320.4 
L 90 43.2 
" style="fill: none; stroke: #000000; stroke-width: 0.8; stroke-linejoin: miter; stroke-linecap: square"/>
   </g>
   <g id="patch_10">
    <path d="M 648 320.4 
L 648 43.2 
" style="fill: none; stroke: #000000; stroke-width: 0.8; stroke-linejoin: miter; stroke-linecap: square"/>
   </g>
   <g id="patch_11">
    <path d="M 90 320.4 
L 648 320.4 
" style="fill: none; stroke: #000000; stroke-width: 0.8; stroke-linejoin: miter; stroke-linecap: square"/>
   </g>
   <g id="patch_12">
    <path d="M 90 43.2 
L 648 43.2 
" style="fill: none; stroke: #000000; stroke-width: 0.8; stroke-linejoin: miter; stroke-linecap: square"/>
   </g>
  </g>
 </g>
 <defs>
  <clipPath id="p53b7a9c235">
   <rect x="90" y="43.2" width="558" height="277.2"/>
  </clipPath>
 </defs>
</svg>
