<?xml version="1.0" encoding="utf-8" standalone="no"?>
<!DOCTYPE svg PUBLIC "-//W3C//DTD SVG 1.1//EN"
  "http://www.w3.org/Graphics/SVG/1.1/DTD/svg11.dtd">
<svg xmlns:xlink="http://www.w3.org/1999/xlink" width="1080pt" height="432pt" viewBox="0 0 1080 432" xmlns="http://www.w3.org/2000/svg" version="1.1">
 <metadata>
  <rdf:RDF xmlns:dc="http://purl.org/dc/elements/1.1/" xmlns:cc="http://creativecommons.org/ns#" xmlns:rdf="http://www.w3.org/1999/02/22-rdf-syntax-ns#">
   <cc:Work>
    <dc:type rdf:resource="http://purl.org/dc/dcmitype/StillImage"/>
    <dc:date>2022-10-18T13:26:59.967854</dc:date>
    <dc:format>image/svg+xml</dc:format>
    <dc:creator>
     <cc:Agent>
      <dc:title>Matplotlib v3.5.2, https://matplotlib.org/</dc:title>
     </cc:Agent>
    </dc:creator>
   </cc:Work>
  </rdf:RDF>
 </metadata>
 <defs>
  <style type="text/css">*{stroke-linejoin: round; stroke-linecap: butt}</style>
 </defs>
 <g id="figure_1">
  <g id="patch_1">
   <path d="M 0 432 
L 1080 432 
L 1080 0 
L 0 0 
z
" style="fill: #ffffff"/>
  </g>
  <g id="axes_1">
   <g id="patch_2">
    <path d="M 39.58149 398.64351 
L 534.6 398.64351 
L 534.6 4.925741 
L 39.58149 4.925741 
z
" style="fill: #ffffff"/>
   </g>
   <g id="matplotlib.axis_1">
    <g id="xtick_1">
     <g id="line2d_1">
      <defs>
       <path id="me9a41e2cd3" d="M 0 0 
L 0 3.5 
" style="stroke: #000000; stroke-width: 0.8"/>
      </defs>
      <g>
       <use xlink:href="#me9a41e2cd3" x="62.082331" y="398.64351" style="stroke: #000000; stroke-width: 0.8"/>
      </g>
     </g>
     <g id="text_1">
      <!-- 0.0 -->
      <g transform="translate(54.130769 413.241947)scale(0.1 -0.1)">
       <defs>
        <path id="DejaVuSans-30" d="M 2034 4250 
Q 1547 4250 1301 3770 
Q 1056 3291 1056 2328 
Q 1056 1369 1301 889 
Q 1547 409 2034 409 
Q 2525 409 2770 889 
Q 3016 1369 3016 2328 
Q 3016 3291 2770 3770 
Q 2525 4250 2034 4250 
z
M 2034 4750 
Q 2819 4750 3233 4129 
Q 3647 3509 3647 2328 
Q 3647 1150 3233 529 
Q 2819 -91 2034 -91 
Q 1250 -91 836 529 
Q 422 1150 422 2328 
Q 422 3509 836 4129 
Q 1250 4750 2034 4750 
z
" transform="scale(0.015625)"/>
        <path id="DejaVuSans-2e" d="M 684 794 
L 1344 794 
L 1344 0 
L 684 0 
L 684 794 
z
" transform="scale(0.015625)"/>
       </defs>
       <use xlink:href="#DejaVuSans-30"/>
       <use xlink:href="#DejaVuSans-2e" x="63.623047"/>
       <use xlink:href="#DejaVuSans-30" x="95.410156"/>
      </g>
     </g>
    </g>
    <g id="xtick_2">
     <g id="line2d_2">
      <g>
       <use xlink:href="#me9a41e2cd3" x="154.042624" y="398.64351" style="stroke: #000000; stroke-width: 0.8"/>
      </g>
     </g>
     <g id="text_2">
      <!-- 0.2 -->
      <g transform="translate(146.091062 413.241947)scale(0.1 -0.1)">
       <defs>
        <path id="DejaVuSans-32" d="M 1228 531 
L 3431 531 
L 3431 0 
L 469 0 
L 469 531 
Q 828 903 1448 1529 
Q 2069 2156 2228 2338 
Q 2531 2678 2651 2914 
Q 2772 3150 2772 3378 
Q 2772 3750 2511 3984 
Q 2250 4219 1831 4219 
Q 1534 4219 1204 4116 
Q 875 4013 500 3803 
L 500 4441 
Q 881 4594 1212 4672 
Q 1544 4750 1819 4750 
Q 2544 4750 2975 4387 
Q 3406 4025 3406 3419 
Q 3406 3131 3298 2873 
Q 3191 2616 2906 2266 
Q 2828 2175 2409 1742 
Q 1991 1309 1228 531 
z
" transform="scale(0.015625)"/>
       </defs>
       <use xlink:href="#DejaVuSans-30"/>
       <use xlink:href="#DejaVuSans-2e" x="63.623047"/>
       <use xlink:href="#DejaVuSans-32" x="95.410156"/>
      </g>
     </g>
    </g>
    <g id="xtick_3">
     <g id="line2d_3">
      <g>
       <use xlink:href="#me9a41e2cd3" x="246.002917" y="398.64351" style="stroke: #000000; stroke-width: 0.8"/>
      </g>
     </g>
     <g id="text_3">
      <!-- 0.4 -->
      <g transform="translate(238.051355 413.241947)scale(0.1 -0.1)">
       <defs>
        <path id="DejaVuSans-34" d="M 2419 4116 
L 825 1625 
L 2419 1625 
L 2419 4116 
z
M 2253 4666 
L 3047 4666 
L 3047 1625 
L 3713 1625 
L 3713 1100 
L 3047 1100 
L 3047 0 
L 2419 0 
L 2419 1100 
L 313 1100 
L 313 1709 
L 2253 4666 
z
" transform="scale(0.015625)"/>
       </defs>
       <use xlink:href="#DejaVuSans-30"/>
       <use xlink:href="#DejaVuSans-2e" x="63.623047"/>
       <use xlink:href="#DejaVuSans-34" x="95.410156"/>
      </g>
     </g>
    </g>
    <g id="xtick_4">
     <g id="line2d_4">
      <g>
       <use xlink:href="#me9a41e2cd3" x="337.96321" y="398.64351" style="stroke: #000000; stroke-width: 0.8"/>
      </g>
     </g>
     <g id="text_4">
      <!-- 0.6 -->
      <g transform="translate(330.011648 413.241947)scale(0.1 -0.1)">
       <defs>
        <path id="DejaVuSans-36" d="M 2113 2584 
Q 1688 2584 1439 2293 
Q 1191 2003 1191 1497 
Q 1191 994 1439 701 
Q 1688 409 2113 409 
Q 2538 409 2786 701 
Q 3034 994 3034 1497 
Q 3034 2003 2786 2293 
Q 2538 2584 2113 2584 
z
M 3366 4563 
L 3366 3988 
Q 3128 4100 2886 4159 
Q 2644 4219 2406 4219 
Q 1781 4219 1451 3797 
Q 1122 3375 1075 2522 
Q 1259 2794 1537 2939 
Q 1816 3084 2150 3084 
Q 2853 3084 3261 2657 
Q 3669 2231 3669 1497 
Q 3669 778 3244 343 
Q 2819 -91 2113 -91 
Q 1303 -91 875 529 
Q 447 1150 447 2328 
Q 447 3434 972 4092 
Q 1497 4750 2381 4750 
Q 2619 4750 2861 4703 
Q 3103 4656 3366 4563 
z
" transform="scale(0.015625)"/>
       </defs>
       <use xlink:href="#DejaVuSans-30"/>
       <use xlink:href="#DejaVuSans-2e" x="63.623047"/>
       <use xlink:href="#DejaVuSans-36" x="95.410156"/>
      </g>
     </g>
    </g>
    <g id="xtick_5">
     <g id="line2d_5">
      <g>
       <use xlink:href="#me9a41e2cd3" x="429.923503" y="398.64351" style="stroke: #000000; stroke-width: 0.8"/>
      </g>
     </g>
     <g id="text_5">
      <!-- 0.8 -->
      <g transform="translate(421.971941 413.241947)scale(0.1 -0.1)">
       <defs>
        <path id="DejaVuSans-38" d="M 2034 2216 
Q 1584 2216 1326 1975 
Q 1069 1734 1069 1313 
Q 1069 891 1326 650 
Q 1584 409 2034 409 
Q 2484 409 2743 651 
Q 3003 894 3003 1313 
Q 3003 1734 2745 1975 
Q 2488 2216 2034 2216 
z
M 1403 2484 
Q 997 2584 770 2862 
Q 544 3141 544 3541 
Q 544 4100 942 4425 
Q 1341 4750 2034 4750 
Q 2731 4750 3128 4425 
Q 3525 4100 3525 3541 
Q 3525 3141 3298 2862 
Q 3072 2584 2669 2484 
Q 3125 2378 3379 2068 
Q 3634 1759 3634 1313 
Q 3634 634 3220 271 
Q 2806 -91 2034 -91 
Q 1263 -91 848 271 
Q 434 634 434 1313 
Q 434 1759 690 2068 
Q 947 2378 1403 2484 
z
M 1172 3481 
Q 1172 3119 1398 2916 
Q 1625 2713 2034 2713 
Q 2441 2713 2670 2916 
Q 2900 3119 2900 3481 
Q 2900 3844 2670 4047 
Q 2441 4250 2034 4250 
Q 1625 4250 1398 4047 
Q 1172 3844 1172 3481 
z
" transform="scale(0.015625)"/>
       </defs>
       <use xlink:href="#DejaVuSans-30"/>
       <use xlink:href="#DejaVuSans-2e" x="63.623047"/>
       <use xlink:href="#DejaVuSans-38" x="95.410156"/>
      </g>
     </g>
    </g>
    <g id="xtick_6">
     <g id="line2d_6">
      <g>
       <use xlink:href="#me9a41e2cd3" x="521.883796" y="398.64351" style="stroke: #000000; stroke-width: 0.8"/>
      </g>
     </g>
     <g id="text_6">
      <!-- 1.0 -->
      <g transform="translate(513.932234 413.241947)scale(0.1 -0.1)">
       <defs>
        <path id="DejaVuSans-31" d="M 794 531 
L 1825 531 
L 1825 4091 
L 703 3866 
L 703 4441 
L 1819 4666 
L 2450 4666 
L 2450 531 
L 3481 531 
L 3481 0 
L 794 0 
L 794 531 
z
" transform="scale(0.015625)"/>
       </defs>
       <use xlink:href="#DejaVuSans-31"/>
       <use xlink:href="#DejaVuSans-2e" x="63.623047"/>
       <use xlink:href="#DejaVuSans-30" x="95.410156"/>
      </g>
     </g>
    </g>
    <g id="text_7">
     <!-- Recall -->
     <g transform="translate(272.173557 426.920073)scale(0.1 -0.1)">
      <defs>
       <path id="DejaVuSans-52" d="M 2841 2188 
Q 3044 2119 3236 1894 
Q 3428 1669 3622 1275 
L 4263 0 
L 3584 0 
L 2988 1197 
Q 2756 1666 2539 1819 
Q 2322 1972 1947 1972 
L 1259 1972 
L 1259 0 
L 628 0 
L 628 4666 
L 2053 4666 
Q 2853 4666 3247 4331 
Q 3641 3997 3641 3322 
Q 3641 2881 3436 2590 
Q 3231 2300 2841 2188 
z
M 1259 4147 
L 1259 2491 
L 2053 2491 
Q 2509 2491 2742 2702 
Q 2975 2913 2975 3322 
Q 2975 3731 2742 3939 
Q 2509 4147 2053 4147 
L 1259 4147 
z
" transform="scale(0.015625)"/>
       <path id="DejaVuSans-65" d="M 3597 1894 
L 3597 1613 
L 953 1613 
Q 991 1019 1311 708 
Q 1631 397 2203 397 
Q 2534 397 2845 478 
Q 3156 559 3463 722 
L 3463 178 
Q 3153 47 2828 -22 
Q 2503 -91 2169 -91 
Q 1331 -91 842 396 
Q 353 884 353 1716 
Q 353 2575 817 3079 
Q 1281 3584 2069 3584 
Q 2775 3584 3186 3129 
Q 3597 2675 3597 1894 
z
M 3022 2063 
Q 3016 2534 2758 2815 
Q 2500 3097 2075 3097 
Q 1594 3097 1305 2825 
Q 1016 2553 972 2059 
L 3022 2063 
z
" transform="scale(0.015625)"/>
       <path id="DejaVuSans-63" d="M 3122 3366 
L 3122 2828 
Q 2878 2963 2633 3030 
Q 2388 3097 2138 3097 
Q 1578 3097 1268 2742 
Q 959 2388 959 1747 
Q 959 1106 1268 751 
Q 1578 397 2138 397 
Q 2388 397 2633 464 
Q 2878 531 3122 666 
L 3122 134 
Q 2881 22 2623 -34 
Q 2366 -91 2075 -91 
Q 1284 -91 818 406 
Q 353 903 353 1747 
Q 353 2603 823 3093 
Q 1294 3584 2113 3584 
Q 2378 3584 2631 3529 
Q 2884 3475 3122 3366 
z
" transform="scale(0.015625)"/>
       <path id="DejaVuSans-61" d="M 2194 1759 
Q 1497 1759 1228 1600 
Q 959 1441 959 1056 
Q 959 750 1161 570 
Q 1363 391 1709 391 
Q 2188 391 2477 730 
Q 2766 1069 2766 1631 
L 2766 1759 
L 2194 1759 
z
M 3341 1997 
L 3341 0 
L 2766 0 
L 2766 531 
Q 2569 213 2275 61 
Q 1981 -91 1556 -91 
Q 1019 -91 701 211 
Q 384 513 384 1019 
Q 384 1609 779 1909 
Q 1175 2209 1959 2209 
L 2766 2209 
L 2766 2266 
Q 2766 2663 2505 2880 
Q 2244 3097 1772 3097 
Q 1472 3097 1187 3025 
Q 903 2953 641 2809 
L 641 3341 
Q 956 3463 1253 3523 
Q 1550 3584 1831 3584 
Q 2591 3584 2966 3190 
Q 3341 2797 3341 1997 
z
" transform="scale(0.015625)"/>
       <path id="DejaVuSans-6c" d="M 603 4863 
L 1178 4863 
L 1178 0 
L 603 0 
L 603 4863 
z
" transform="scale(0.015625)"/>
      </defs>
      <use xlink:href="#DejaVuSans-52"/>
      <use xlink:href="#DejaVuSans-65" x="64.982422"/>
      <use xlink:href="#DejaVuSans-63" x="126.505859"/>
      <use xlink:href="#DejaVuSans-61" x="181.486328"/>
      <use xlink:href="#DejaVuSans-6c" x="242.765625"/>
      <use xlink:href="#DejaVuSans-6c" x="270.548828"/>
     </g>
    </g>
   </g>
   <g id="matplotlib.axis_2">
    <g id="ytick_1">
     <g id="line2d_7">
      <defs>
       <path id="m869a2f39f6" d="M 0 0 
L -3.5 0 
" style="stroke: #000000; stroke-width: 0.8"/>
      </defs>
      <g>
       <use xlink:href="#m869a2f39f6" x="39.58149" y="380.747248" style="stroke: #000000; stroke-width: 0.8"/>
      </g>
     </g>
     <g id="text_8">
      <!-- 0.0 -->
      <g transform="translate(16.678365 384.546467)scale(0.1 -0.1)">
       <use xlink:href="#DejaVuSans-30"/>
       <use xlink:href="#DejaVuSans-2e" x="63.623047"/>
       <use xlink:href="#DejaVuSans-30" x="95.410156"/>
      </g>
     </g>
    </g>
    <g id="ytick_2">
     <g id="line2d_8">
      <g>
       <use xlink:href="#m869a2f39f6" x="39.58149" y="305.957966" style="stroke: #000000; stroke-width: 0.8"/>
      </g>
     </g>
     <g id="text_9">
      <!-- 0.2 -->
      <g transform="translate(16.678365 309.757184)scale(0.1 -0.1)">
       <use xlink:href="#DejaVuSans-30"/>
       <use xlink:href="#DejaVuSans-2e" x="63.623047"/>
       <use xlink:href="#DejaVuSans-32" x="95.410156"/>
      </g>
     </g>
    </g>
    <g id="ytick_3">
     <g id="line2d_9">
      <g>
       <use xlink:href="#m869a2f39f6" x="39.58149" y="231.168684" style="stroke: #000000; stroke-width: 0.8"/>
      </g>
     </g>
     <g id="text_10">
      <!-- 0.4 -->
      <g transform="translate(16.678365 234.967902)scale(0.1 -0.1)">
       <use xlink:href="#DejaVuSans-30"/>
       <use xlink:href="#DejaVuSans-2e" x="63.623047"/>
       <use xlink:href="#DejaVuSans-34" x="95.410156"/>
      </g>
     </g>
    </g>
    <g id="ytick_4">
     <g id="line2d_10">
      <g>
       <use xlink:href="#m869a2f39f6" x="39.58149" y="156.379402" style="stroke: #000000; stroke-width: 0.8"/>
      </g>
     </g>
     <g id="text_11">
      <!-- 0.6 -->
      <g transform="translate(16.678365 160.17862)scale(0.1 -0.1)">
       <use xlink:href="#DejaVuSans-30"/>
       <use xlink:href="#DejaVuSans-2e" x="63.623047"/>
       <use xlink:href="#DejaVuSans-36" x="95.410156"/>
      </g>
     </g>
    </g>
    <g id="ytick_5">
     <g id="line2d_11">
      <g>
       <use xlink:href="#m869a2f39f6" x="39.58149" y="81.59012" style="stroke: #000000; stroke-width: 0.8"/>
      </g>
     </g>
     <g id="text_12">
      <!-- 0.8 -->
      <g transform="translate(16.678365 85.389338)scale(0.1 -0.1)">
       <use xlink:href="#DejaVuSans-30"/>
       <use xlink:href="#DejaVuSans-2e" x="63.623047"/>
       <use xlink:href="#DejaVuSans-38" x="95.410156"/>
      </g>
     </g>
    </g>
    <g id="ytick_6">
     <g id="line2d_12">
      <g>
       <use xlink:href="#m869a2f39f6" x="39.58149" y="6.800838" style="stroke: #000000; stroke-width: 0.8"/>
      </g>
     </g>
     <g id="text_13">
      <!-- 1.0 -->
      <g transform="translate(16.678365 10.600056)scale(0.1 -0.1)">
       <use xlink:href="#DejaVuSans-31"/>
       <use xlink:href="#DejaVuSans-2e" x="63.623047"/>
       <use xlink:href="#DejaVuSans-30" x="95.410156"/>
      </g>
     </g>
    </g>
    <g id="text_14">
     <!-- Precision -->
     <g transform="translate(10.598678 224.091657)rotate(-90)scale(0.1 -0.1)">
      <defs>
       <path id="DejaVuSans-50" d="M 1259 4147 
L 1259 2394 
L 2053 2394 
Q 2494 2394 2734 2622 
Q 2975 2850 2975 3272 
Q 2975 3691 2734 3919 
Q 2494 4147 2053 4147 
L 1259 4147 
z
M 628 4666 
L 2053 4666 
Q 2838 4666 3239 4311 
Q 3641 3956 3641 3272 
Q 3641 2581 3239 2228 
Q 2838 1875 2053 1875 
L 1259 1875 
L 1259 0 
L 628 0 
L 628 4666 
z
" transform="scale(0.015625)"/>
       <path id="DejaVuSans-72" d="M 2631 2963 
Q 2534 3019 2420 3045 
Q 2306 3072 2169 3072 
Q 1681 3072 1420 2755 
Q 1159 2438 1159 1844 
L 1159 0 
L 581 0 
L 581 3500 
L 1159 3500 
L 1159 2956 
Q 1341 3275 1631 3429 
Q 1922 3584 2338 3584 
Q 2397 3584 2469 3576 
Q 2541 3569 2628 3553 
L 2631 2963 
z
" transform="scale(0.015625)"/>
       <path id="DejaVuSans-69" d="M 603 3500 
L 1178 3500 
L 1178 0 
L 603 0 
L 603 3500 
z
M 603 4863 
L 1178 4863 
L 1178 4134 
L 603 4134 
L 603 4863 
z
" transform="scale(0.015625)"/>
       <path id="DejaVuSans-73" d="M 2834 3397 
L 2834 2853 
Q 2591 2978 2328 3040 
Q 2066 3103 1784 3103 
Q 1356 3103 1142 2972 
Q 928 2841 928 2578 
Q 928 2378 1081 2264 
Q 1234 2150 1697 2047 
L 1894 2003 
Q 2506 1872 2764 1633 
Q 3022 1394 3022 966 
Q 3022 478 2636 193 
Q 2250 -91 1575 -91 
Q 1294 -91 989 -36 
Q 684 19 347 128 
L 347 722 
Q 666 556 975 473 
Q 1284 391 1588 391 
Q 1994 391 2212 530 
Q 2431 669 2431 922 
Q 2431 1156 2273 1281 
Q 2116 1406 1581 1522 
L 1381 1569 
Q 847 1681 609 1914 
Q 372 2147 372 2553 
Q 372 3047 722 3315 
Q 1072 3584 1716 3584 
Q 2034 3584 2315 3537 
Q 2597 3491 2834 3397 
z
" transform="scale(0.015625)"/>
       <path id="DejaVuSans-6f" d="M 1959 3097 
Q 1497 3097 1228 2736 
Q 959 2375 959 1747 
Q 959 1119 1226 758 
Q 1494 397 1959 397 
Q 2419 397 2687 759 
Q 2956 1122 2956 1747 
Q 2956 2369 2687 2733 
Q 2419 3097 1959 3097 
z
M 1959 3584 
Q 2709 3584 3137 3096 
Q 3566 2609 3566 1747 
Q 3566 888 3137 398 
Q 2709 -91 1959 -91 
Q 1206 -91 779 398 
Q 353 888 353 1747 
Q 353 2609 779 3096 
Q 1206 3584 1959 3584 
z
" transform="scale(0.015625)"/>
       <path id="DejaVuSans-6e" d="M 3513 2113 
L 3513 0 
L 2938 0 
L 2938 2094 
Q 2938 2591 2744 2837 
Q 2550 3084 2163 3084 
Q 1697 3084 1428 2787 
Q 1159 2491 1159 1978 
L 1159 0 
L 581 0 
L 581 3500 
L 1159 3500 
L 1159 2956 
Q 1366 3272 1645 3428 
Q 1925 3584 2291 3584 
Q 2894 3584 3203 3211 
Q 3513 2838 3513 2113 
z
" transform="scale(0.015625)"/>
      </defs>
      <use xlink:href="#DejaVuSans-50"/>
      <use xlink:href="#DejaVuSans-72" x="58.552734"/>
      <use xlink:href="#DejaVuSans-65" x="97.416016"/>
      <use xlink:href="#DejaVuSans-63" x="158.939453"/>
      <use xlink:href="#DejaVuSans-69" x="213.919922"/>
      <use xlink:href="#DejaVuSans-73" x="241.703125"/>
      <use xlink:href="#DejaVuSans-69" x="293.802734"/>
      <use xlink:href="#DejaVuSans-6f" x="321.585938"/>
      <use xlink:href="#DejaVuSans-6e" x="382.767578"/>
     </g>
    </g>
   </g>
   <g id="line2d_13">
    <path d="M 504.049119 324.289644 
L 484.46444 290.679292 
L 467.928196 262.869894 
L 451.238897 239.493498 
L 434.685378 218.639133 
L 418.213579 198.701728 
L 402.648689 182.379261 
L 386.015182 165.966528 
L 368.935733 150.742497 
L 352.340591 135.634133 
L 334.772709 122.794482 
L 316.862526 109.107559 
L 298.897562 96.835071 
L 278.698647 86.252815 
L 258.724614 72.78935 
L 236.140839 63.769736 
L 209.923372 52.480825 
L 182.631332 43.842802 
L 147.781874 35.014381 
L 62.082331 380.747248 
" clip-path="url(#pbcecf84a41)" style="fill: none; stroke: #1f77b4; stroke-width: 1.5; stroke-linecap: square"/>
    <defs>
     <path id="m71fac0e031" d="M 0 1.5 
C 0.397805 1.5 0.77937 1.341951 1.06066 1.06066 
C 1.341951 0.77937 1.5 0.397805 1.5 0 
C 1.5 -0.397805 1.341951 -0.77937 1.06066 -1.06066 
C 0.77937 -1.341951 0.397805 -1.5 0 -1.5 
C -0.397805 -1.5 -0.77937 -1.341951 -1.06066 -1.06066 
C -1.341951 -0.77937 -1.5 -0.397805 -1.5 0 
C -1.5 0.397805 -1.341951 0.77937 -1.06066 1.06066 
C -0.77937 1.341951 -0.397805 1.5 0 1.5 
z
" style="stroke: #1f77b4"/>
    </defs>
    <g clip-path="url(#pbcecf84a41)">
     <use xlink:href="#m71fac0e031" x="504.049119" y="324.289644" style="fill: #1f77b4; stroke: #1f77b4"/>
     <use xlink:href="#m71fac0e031" x="484.46444" y="290.679292" style="fill: #1f77b4; stroke: #1f77b4"/>
     <use xlink:href="#m71fac0e031" x="467.928196" y="262.869894" style="fill: #1f77b4; stroke: #1f77b4"/>
     <use xlink:href="#m71fac0e031" x="451.238897" y="239.493498" style="fill: #1f77b4; stroke: #1f77b4"/>
     <use xlink:href="#m71fac0e031" x="434.685378" y="218.639133" style="fill: #1f77b4; stroke: #1f77b4"/>
     <use xlink:href="#m71fac0e031" x="418.213579" y="198.701728" style="fill: #1f77b4; stroke: #1f77b4"/>
     <use xlink:href="#m71fac0e031" x="402.648689" y="182.379261" style="fill: #1f77b4; stroke: #1f77b4"/>
     <use xlink:href="#m71fac0e031" x="386.015182" y="165.966528" style="fill: #1f77b4; stroke: #1f77b4"/>
     <use xlink:href="#m71fac0e031" x="368.935733" y="150.742497" style="fill: #1f77b4; stroke: #1f77b4"/>
     <use xlink:href="#m71fac0e031" x="352.340591" y="135.634133" style="fill: #1f77b4; stroke: #1f77b4"/>
     <use xlink:href="#m71fac0e031" x="334.772709" y="122.794482" style="fill: #1f77b4; stroke: #1f77b4"/>
     <use xlink:href="#m71fac0e031" x="316.862526" y="109.107559" style="fill: #1f77b4; stroke: #1f77b4"/>
     <use xlink:href="#m71fac0e031" x="298.897562" y="96.835071" style="fill: #1f77b4; stroke: #1f77b4"/>
     <use xlink:href="#m71fac0e031" x="278.698647" y="86.252815" style="fill: #1f77b4; stroke: #1f77b4"/>
     <use xlink:href="#m71fac0e031" x="258.724614" y="72.78935" style="fill: #1f77b4; stroke: #1f77b4"/>
     <use xlink:href="#m71fac0e031" x="236.140839" y="63.769736" style="fill: #1f77b4; stroke: #1f77b4"/>
     <use xlink:href="#m71fac0e031" x="209.923372" y="52.480825" style="fill: #1f77b4; stroke: #1f77b4"/>
     <use xlink:href="#m71fac0e031" x="182.631332" y="43.842802" style="fill: #1f77b4; stroke: #1f77b4"/>
     <use xlink:href="#m71fac0e031" x="147.781874" y="35.014381" style="fill: #1f77b4; stroke: #1f77b4"/>
     <use xlink:href="#m71fac0e031" x="62.082331" y="380.747248" style="fill: #1f77b4; stroke: #1f77b4"/>
    </g>
   </g>
   <g id="line2d_14">
    <path d="M 283.344786 125.469495 
L 270.015831 116.013459 
L 261.465202 110.822164 
L 254.940919 106.548345 
L 248.877698 104.013821 
L 244.006926 101.262184 
L 240.246518 98.184658 
L 235.426945 96.002511 
L 229.685984 94.68708 
L 224.977466 90.595719 
L 220.012875 87.93683 
L 213.099706 85.784176 
L 208.691209 82.811234 
L 202.959313 79.787693 
L 196.82711 73.775925 
L 187.451646 73.324513 
L 177.112203 68.856179 
L 163.630962 64.246157 
L 138.179345 56.640099 
L 62.082331 380.747248 
" clip-path="url(#pbcecf84a41)" style="fill: none; stroke: #ff7f0e; stroke-width: 1.5; stroke-linecap: square"/>
    <defs>
     <path id="mc324488743" d="M 0 1.5 
C 0.397805 1.5 0.77937 1.341951 1.06066 1.06066 
C 1.341951 0.77937 1.5 0.397805 1.5 0 
C 1.5 -0.397805 1.341951 -0.77937 1.06066 -1.06066 
C 0.77937 -1.341951 0.397805 -1.5 0 -1.5 
C -0.397805 -1.5 -0.77937 -1.341951 -1.06066 -1.06066 
C -1.341951 -0.77937 -1.5 -0.397805 -1.5 0 
C -1.5 0.397805 -1.341951 0.77937 -1.06066 1.06066 
C -0.77937 1.341951 -0.397805 1.5 0 1.5 
z
" style="stroke: #ff7f0e"/>
    </defs>
    <g clip-path="url(#pbcecf84a41)">
     <use xlink:href="#mc324488743" x="283.344786" y="125.469495" style="fill: #ff7f0e; stroke: #ff7f0e"/>
     <use xlink:href="#mc324488743" x="270.015831" y="116.013459" style="fill: #ff7f0e; stroke: #ff7f0e"/>
     <use xlink:href="#mc324488743" x="261.465202" y="110.822164" style="fill: #ff7f0e; stroke: #ff7f0e"/>
     <use xlink:href="#mc324488743" x="254.940919" y="106.548345" style="fill: #ff7f0e; stroke: #ff7f0e"/>
     <use xlink:href="#mc324488743" x="248.877698" y="104.013821" style="fill: #ff7f0e; stroke: #ff7f0e"/>
     <use xlink:href="#mc324488743" x="244.006926" y="101.262184" style="fill: #ff7f0e; stroke: #ff7f0e"/>
     <use xlink:href="#mc324488743" x="240.246518" y="98.184658" style="fill: #ff7f0e; stroke: #ff7f0e"/>
     <use xlink:href="#mc324488743" x="235.426945" y="96.002511" style="fill: #ff7f0e; stroke: #ff7f0e"/>
     <use xlink:href="#mc324488743" x="229.685984" y="94.68708" style="fill: #ff7f0e; stroke: #ff7f0e"/>
     <use xlink:href="#mc324488743" x="224.977466" y="90.595719" style="fill: #ff7f0e; stroke: #ff7f0e"/>
     <use xlink:href="#mc324488743" x="220.012875" y="87.93683" style="fill: #ff7f0e; stroke: #ff7f0e"/>
     <use xlink:href="#mc324488743" x="213.099706" y="85.784176" style="fill: #ff7f0e; stroke: #ff7f0e"/>
     <use xlink:href="#mc324488743" x="208.691209" y="82.811234" style="fill: #ff7f0e; stroke: #ff7f0e"/>
     <use xlink:href="#mc324488743" x="202.959313" y="79.787693" style="fill: #ff7f0e; stroke: #ff7f0e"/>
     <use xlink:href="#mc324488743" x="196.82711" y="73.775925" style="fill: #ff7f0e; stroke: #ff7f0e"/>
     <use xlink:href="#mc324488743" x="187.451646" y="73.324513" style="fill: #ff7f0e; stroke: #ff7f0e"/>
     <use xlink:href="#mc324488743" x="177.112203" y="68.856179" style="fill: #ff7f0e; stroke: #ff7f0e"/>
     <use xlink:href="#mc324488743" x="163.630962" y="64.246157" style="fill: #ff7f0e; stroke: #ff7f0e"/>
     <use xlink:href="#mc324488743" x="138.179345" y="56.640099" style="fill: #ff7f0e; stroke: #ff7f0e"/>
     <use xlink:href="#mc324488743" x="62.082331" y="380.747248" style="fill: #ff7f0e; stroke: #ff7f0e"/>
    </g>
   </g>
   <g id="line2d_15">
    <path d="M 485.137644 290.348587 
L 464.537069 252.893696 
L 443.742804 224.350171 
L 425.736694 202.576256 
L 410.089876 183.590322 
L 393.421403 168.546893 
L 379.731355 154.319694 
L 366.072043 142.203098 
L 353.92422 134.145935 
L 342.928307 124.210744 
L 333.453886 115.704687 
L 323.852864 107.64933 
L 314.463055 98.635516 
L 304.608398 88.698786 
L 293.258038 78.424509 
L 278.731185 71.843805 
L 260.367453 62.139146 
L 234.908189 49.923081 
L 168.984117 22.822003 
L 62.082331 380.747248 
" clip-path="url(#pbcecf84a41)" style="fill: none; stroke: #2ca02c; stroke-width: 1.5; stroke-linecap: square"/>
    <defs>
     <path id="mc41711b739" d="M 0 1.5 
C 0.397805 1.5 0.77937 1.341951 1.06066 1.06066 
C 1.341951 0.77937 1.5 0.397805 1.5 0 
C 1.5 -0.397805 1.341951 -0.77937 1.06066 -1.06066 
C 0.77937 -1.341951 0.397805 -1.5 0 -1.5 
C -0.397805 -1.5 -0.77937 -1.341951 -1.06066 -1.06066 
C -1.341951 -0.77937 -1.5 -0.397805 -1.5 0 
C -1.5 0.397805 -1.341951 0.77937 -1.06066 1.06066 
C -0.77937 1.341951 -0.397805 1.5 0 1.5 
z
" style="stroke: #2ca02c"/>
    </defs>
    <g clip-path="url(#pbcecf84a41)">
     <use xlink:href="#mc41711b739" x="485.137644" y="290.348587" style="fill: #2ca02c; stroke: #2ca02c"/>
     <use xlink:href="#mc41711b739" x="464.537069" y="252.893696" style="fill: #2ca02c; stroke: #2ca02c"/>
     <use xlink:href="#mc41711b739" x="443.742804" y="224.350171" style="fill: #2ca02c; stroke: #2ca02c"/>
     <use xlink:href="#mc41711b739" x="425.736694" y="202.576256" style="fill: #2ca02c; stroke: #2ca02c"/>
     <use xlink:href="#mc41711b739" x="410.089876" y="183.590322" style="fill: #2ca02c; stroke: #2ca02c"/>
     <use xlink:href="#mc41711b739" x="393.421403" y="168.546893" style="fill: #2ca02c; stroke: #2ca02c"/>
     <use xlink:href="#mc41711b739" x="379.731355" y="154.319694" style="fill: #2ca02c; stroke: #2ca02c"/>
     <use xlink:href="#mc41711b739" x="366.072043" y="142.203098" style="fill: #2ca02c; stroke: #2ca02c"/>
     <use xlink:href="#mc41711b739" x="353.92422" y="134.145935" style="fill: #2ca02c; stroke: #2ca02c"/>
     <use xlink:href="#mc41711b739" x="342.928307" y="124.210744" style="fill: #2ca02c; stroke: #2ca02c"/>
     <use xlink:href="#mc41711b739" x="333.453886" y="115.704687" style="fill: #2ca02c; stroke: #2ca02c"/>
     <use xlink:href="#mc41711b739" x="323.852864" y="107.64933" style="fill: #2ca02c; stroke: #2ca02c"/>
     <use xlink:href="#mc41711b739" x="314.463055" y="98.635516" style="fill: #2ca02c; stroke: #2ca02c"/>
     <use xlink:href="#mc41711b739" x="304.608398" y="88.698786" style="fill: #2ca02c; stroke: #2ca02c"/>
     <use xlink:href="#mc41711b739" x="293.258038" y="78.424509" style="fill: #2ca02c; stroke: #2ca02c"/>
     <use xlink:href="#mc41711b739" x="278.731185" y="71.843805" style="fill: #2ca02c; stroke: #2ca02c"/>
     <use xlink:href="#mc41711b739" x="260.367453" y="62.139146" style="fill: #2ca02c; stroke: #2ca02c"/>
     <use xlink:href="#mc41711b739" x="234.908189" y="49.923081" style="fill: #2ca02c; stroke: #2ca02c"/>
     <use xlink:href="#mc41711b739" x="168.984117" y="22.822003" style="fill: #2ca02c; stroke: #2ca02c"/>
     <use xlink:href="#mc41711b739" x="62.082331" y="380.747248" style="fill: #2ca02c; stroke: #2ca02c"/>
    </g>
   </g>
   <g id="line2d_16">
    <path d="M 507.353324 346.78942 
L 496.847564 319.541816 
L 481.731873 290.570458 
L 464.97596 256.42178 
L 446.067627 223.03429 
L 423.027063 188.259997 
L 396.384002 156.139478 
L 368.649933 133.18198 
L 338.795242 109.821275 
L 309.947492 88.526907 
L 277.480011 73.633113 
L 241.984352 58.897735 
L 203.981561 55.318462 
L 167.84735 53.87318 
L 117.601704 84.141356 
L 63.713512 294.256241 
L 62.082331 380.747248 
L 62.082331 380.747248 
L 62.082331 380.747248 
L 62.082331 380.747248 
" clip-path="url(#pbcecf84a41)" style="fill: none; stroke: #d62728; stroke-width: 1.5; stroke-linecap: square"/>
    <defs>
     <path id="m0593382ff9" d="M 0 1.5 
C 0.397805 1.5 0.77937 1.341951 1.06066 1.06066 
C 1.341951 0.77937 1.5 0.397805 1.5 0 
C 1.5 -0.397805 1.341951 -0.77937 1.06066 -1.06066 
C 0.77937 -1.341951 0.397805 -1.5 0 -1.5 
C -0.397805 -1.5 -0.77937 -1.341951 -1.06066 -1.06066 
C -1.341951 -0.77937 -1.5 -0.397805 -1.5 0 
C -1.5 0.397805 -1.341951 0.77937 -1.06066 1.06066 
C -0.77937 1.341951 -0.397805 1.5 0 1.5 
z
" style="stroke: #d62728"/>
    </defs>
    <g clip-path="url(#pbcecf84a41)">
     <use xlink:href="#m0593382ff9" x="507.353324" y="346.78942" style="fill: #d62728; stroke: #d62728"/>
     <use xlink:href="#m0593382ff9" x="496.847564" y="319.541816" style="fill: #d62728; stroke: #d62728"/>
     <use xlink:href="#m0593382ff9" x="481.731873" y="290.570458" style="fill: #d62728; stroke: #d62728"/>
     <use xlink:href="#m0593382ff9" x="464.97596" y="256.42178" style="fill: #d62728; stroke: #d62728"/>
     <use xlink:href="#m0593382ff9" x="446.067627" y="223.03429" style="fill: #d62728; stroke: #d62728"/>
     <use xlink:href="#m0593382ff9" x="423.027063" y="188.259997" style="fill: #d62728; stroke: #d62728"/>
     <use xlink:href="#m0593382ff9" x="396.384002" y="156.139478" style="fill: #d62728; stroke: #d62728"/>
     <use xlink:href="#m0593382ff9" x="368.649933" y="133.18198" style="fill: #d62728; stroke: #d62728"/>
     <use xlink:href="#m0593382ff9" x="338.795242" y="109.821275" style="fill: #d62728; stroke: #d62728"/>
     <use xlink:href="#m0593382ff9" x="309.947492" y="88.526907" style="fill: #d62728; stroke: #d62728"/>
     <use xlink:href="#m0593382ff9" x="277.480011" y="73.633113" style="fill: #d62728; stroke: #d62728"/>
     <use xlink:href="#m0593382ff9" x="241.984352" y="58.897735" style="fill: #d62728; stroke: #d62728"/>
     <use xlink:href="#m0593382ff9" x="203.981561" y="55.318462" style="fill: #d62728; stroke: #d62728"/>
     <use xlink:href="#m0593382ff9" x="167.84735" y="53.87318" style="fill: #d62728; stroke: #d62728"/>
     <use xlink:href="#m0593382ff9" x="117.601704" y="84.141356" style="fill: #d62728; stroke: #d62728"/>
     <use xlink:href="#m0593382ff9" x="63.713512" y="294.256241" style="fill: #d62728; stroke: #d62728"/>
     <use xlink:href="#m0593382ff9" x="62.082331" y="380.747248" style="fill: #d62728; stroke: #d62728"/>
     <use xlink:href="#m0593382ff9" x="62.082331" y="380.747248" style="fill: #d62728; stroke: #d62728"/>
     <use xlink:href="#m0593382ff9" x="62.082331" y="380.747248" style="fill: #d62728; stroke: #d62728"/>
     <use xlink:href="#m0593382ff9" x="62.082331" y="380.747248" style="fill: #d62728; stroke: #d62728"/>
    </g>
   </g>
   <g id="line2d_17">
    <path d="M 512.099159 366.143111 
L 498.108028 346.901756 
L 481.412341 325.569298 
L 464.449356 302.673111 
L 445.080484 282.086855 
L 426.112037 261.864269 
L 406.583961 242.178076 
L 387.408417 224.517738 
L 368.472668 206.781205 
L 349.611535 189.832923 
L 328.380748 174.744051 
L 307.500168 159.717398 
L 286.857247 144.134795 
L 265.40293 128.347858 
L 243.488389 113.114992 
L 219.846846 103.210421 
L 195.314859 95.651967 
L 168.144935 96.184217 
L 139.632801 85.039866 
L 62.082331 380.747248 
" clip-path="url(#pbcecf84a41)" style="fill: none; stroke: #9467bd; stroke-width: 1.5; stroke-linecap: square"/>
    <defs>
     <path id="m832d0d77a1" d="M 0 1.5 
C 0.397805 1.5 0.77937 1.341951 1.06066 1.06066 
C 1.341951 0.77937 1.5 0.397805 1.5 0 
C 1.5 -0.397805 1.341951 -0.77937 1.06066 -1.06066 
C 0.77937 -1.341951 0.397805 -1.5 0 -1.5 
C -0.397805 -1.5 -0.77937 -1.341951 -1.06066 -1.06066 
C -1.341951 -0.77937 -1.5 -0.397805 -1.5 0 
C -1.5 0.397805 -1.341951 0.77937 -1.06066 1.06066 
C -0.77937 1.341951 -0.397805 1.5 0 1.5 
z
" style="stroke: #9467bd"/>
    </defs>
    <g clip-path="url(#pbcecf84a41)">
     <use xlink:href="#m832d0d77a1" x="512.099159" y="366.143111" style="fill: #9467bd; stroke: #9467bd"/>
     <use xlink:href="#m832d0d77a1" x="498.108028" y="346.901756" style="fill: #9467bd; stroke: #9467bd"/>
     <use xlink:href="#m832d0d77a1" x="481.412341" y="325.569298" style="fill: #9467bd; stroke: #9467bd"/>
     <use xlink:href="#m832d0d77a1" x="464.449356" y="302.673111" style="fill: #9467bd; stroke: #9467bd"/>
     <use xlink:href="#m832d0d77a1" x="445.080484" y="282.086855" style="fill: #9467bd; stroke: #9467bd"/>
     <use xlink:href="#m832d0d77a1" x="426.112037" y="261.864269" style="fill: #9467bd; stroke: #9467bd"/>
     <use xlink:href="#m832d0d77a1" x="406.583961" y="242.178076" style="fill: #9467bd; stroke: #9467bd"/>
     <use xlink:href="#m832d0d77a1" x="387.408417" y="224.517738" style="fill: #9467bd; stroke: #9467bd"/>
     <use xlink:href="#m832d0d77a1" x="368.472668" y="206.781205" style="fill: #9467bd; stroke: #9467bd"/>
     <use xlink:href="#m832d0d77a1" x="349.611535" y="189.832923" style="fill: #9467bd; stroke: #9467bd"/>
     <use xlink:href="#m832d0d77a1" x="328.380748" y="174.744051" style="fill: #9467bd; stroke: #9467bd"/>
     <use xlink:href="#m832d0d77a1" x="307.500168" y="159.717398" style="fill: #9467bd; stroke: #9467bd"/>
     <use xlink:href="#m832d0d77a1" x="286.857247" y="144.134795" style="fill: #9467bd; stroke: #9467bd"/>
     <use xlink:href="#m832d0d77a1" x="265.40293" y="128.347858" style="fill: #9467bd; stroke: #9467bd"/>
     <use xlink:href="#m832d0d77a1" x="243.488389" y="113.114992" style="fill: #9467bd; stroke: #9467bd"/>
     <use xlink:href="#m832d0d77a1" x="219.846846" y="103.210421" style="fill: #9467bd; stroke: #9467bd"/>
     <use xlink:href="#m832d0d77a1" x="195.314859" y="95.651967" style="fill: #9467bd; stroke: #9467bd"/>
     <use xlink:href="#m832d0d77a1" x="168.144935" y="96.184217" style="fill: #9467bd; stroke: #9467bd"/>
     <use xlink:href="#m832d0d77a1" x="139.632801" y="85.039866" style="fill: #9467bd; stroke: #9467bd"/>
     <use xlink:href="#m832d0d77a1" x="62.082331" y="380.747248" style="fill: #9467bd; stroke: #9467bd"/>
    </g>
   </g>
   <g id="line2d_18">
    <path d="M 450.671651 287.022081 
L 401.301824 229.05163 
L 364.792766 189.354077 
L 330.071008 157.311724 
L 296.612398 131.655204 
L 263.357892 109.188583 
L 230.913713 83.998711 
L 189.334772 54.981075 
L 127.24655 37.715382 
L 62.082331 380.747248 
" clip-path="url(#pbcecf84a41)" style="fill: none; stroke: #8c564b; stroke-width: 1.5; stroke-linecap: square"/>
    <defs>
     <path id="m360aa8271e" d="M 0 1.5 
C 0.397805 1.5 0.77937 1.341951 1.06066 1.06066 
C 1.341951 0.77937 1.5 0.397805 1.5 0 
C 1.5 -0.397805 1.341951 -0.77937 1.06066 -1.06066 
C 0.77937 -1.341951 0.397805 -1.5 0 -1.5 
C -0.397805 -1.5 -0.77937 -1.341951 -1.06066 -1.06066 
C -1.341951 -0.77937 -1.5 -0.397805 -1.5 0 
C -1.5 0.397805 -1.341951 0.77937 -1.06066 1.06066 
C -0.77937 1.341951 -0.397805 1.5 0 1.5 
z
" style="stroke: #8c564b"/>
    </defs>
    <g clip-path="url(#pbcecf84a41)">
     <use xlink:href="#m360aa8271e" x="450.671651" y="287.022081" style="fill: #8c564b; stroke: #8c564b"/>
     <use xlink:href="#m360aa8271e" x="401.301824" y="229.05163" style="fill: #8c564b; stroke: #8c564b"/>
     <use xlink:href="#m360aa8271e" x="364.792766" y="189.354077" style="fill: #8c564b; stroke: #8c564b"/>
     <use xlink:href="#m360aa8271e" x="330.071008" y="157.311724" style="fill: #8c564b; stroke: #8c564b"/>
     <use xlink:href="#m360aa8271e" x="296.612398" y="131.655204" style="fill: #8c564b; stroke: #8c564b"/>
     <use xlink:href="#m360aa8271e" x="263.357892" y="109.188583" style="fill: #8c564b; stroke: #8c564b"/>
     <use xlink:href="#m360aa8271e" x="230.913713" y="83.998711" style="fill: #8c564b; stroke: #8c564b"/>
     <use xlink:href="#m360aa8271e" x="189.334772" y="54.981075" style="fill: #8c564b; stroke: #8c564b"/>
     <use xlink:href="#m360aa8271e" x="127.24655" y="37.715382" style="fill: #8c564b; stroke: #8c564b"/>
     <use xlink:href="#m360aa8271e" x="62.082331" y="380.747248" style="fill: #8c564b; stroke: #8c564b"/>
    </g>
   </g>
   <g id="patch_3">
    <path d="M 39.58149 398.64351 
L 39.58149 4.925741 
" style="fill: none; stroke: #000000; stroke-width: 0.8; stroke-linejoin: miter; stroke-linecap: square"/>
   </g>
   <g id="patch_4">
    <path d="M 534.6 398.64351 
L 534.6 4.925741 
" style="fill: none; stroke: #000000; stroke-width: 0.8; stroke-linejoin: miter; stroke-linecap: square"/>
   </g>
   <g id="patch_5">
    <path d="M 39.58149 398.64351 
L 534.6 398.64351 
" style="fill: none; stroke: #000000; stroke-width: 0.8; stroke-linejoin: miter; stroke-linecap: square"/>
   </g>
   <g id="patch_6">
    <path d="M 39.58149 4.925741 
L 534.6 4.925741 
" style="fill: none; stroke: #000000; stroke-width: 0.8; stroke-linejoin: miter; stroke-linecap: square"/>
   </g>
   <g id="legend_1">
    <g id="patch_7">
     <path d="M 446.115625 100.994491 
L 527.6 100.994491 
Q 529.6 100.994491 529.6 98.994491 
L 529.6 11.925741 
Q 529.6 9.925741 527.6 9.925741 
L 446.115625 9.925741 
Q 444.115625 9.925741 444.115625 11.925741 
L 444.115625 98.994491 
Q 444.115625 100.994491 446.115625 100.994491 
z
" style="fill: #ffffff; opacity: 0.8; stroke: #cccccc; stroke-linejoin: miter"/>
    </g>
    <g id="line2d_19">
     <path d="M 448.115625 18.024178 
L 458.115625 18.024178 
L 468.115625 18.024178 
" style="fill: none; stroke: #1f77b4; stroke-width: 1.5; stroke-linecap: square"/>
     <g>
      <use xlink:href="#m71fac0e031" x="458.115625" y="18.024178" style="fill: #1f77b4; stroke: #1f77b4"/>
     </g>
    </g>
    <g id="text_15">
     <!-- CNN1D -->
     <g transform="translate(476.115625 21.524178)scale(0.1 -0.1)">
      <defs>
       <path id="DejaVuSans-43" d="M 4122 4306 
L 4122 3641 
Q 3803 3938 3442 4084 
Q 3081 4231 2675 4231 
Q 1875 4231 1450 3742 
Q 1025 3253 1025 2328 
Q 1025 1406 1450 917 
Q 1875 428 2675 428 
Q 3081 428 3442 575 
Q 3803 722 4122 1019 
L 4122 359 
Q 3791 134 3420 21 
Q 3050 -91 2638 -91 
Q 1578 -91 968 557 
Q 359 1206 359 2328 
Q 359 3453 968 4101 
Q 1578 4750 2638 4750 
Q 3056 4750 3426 4639 
Q 3797 4528 4122 4306 
z
" transform="scale(0.015625)"/>
       <path id="DejaVuSans-4e" d="M 628 4666 
L 1478 4666 
L 3547 763 
L 3547 4666 
L 4159 4666 
L 4159 0 
L 3309 0 
L 1241 3903 
L 1241 0 
L 628 0 
L 628 4666 
z
" transform="scale(0.015625)"/>
       <path id="DejaVuSans-44" d="M 1259 4147 
L 1259 519 
L 2022 519 
Q 2988 519 3436 956 
Q 3884 1394 3884 2338 
Q 3884 3275 3436 3711 
Q 2988 4147 2022 4147 
L 1259 4147 
z
M 628 4666 
L 1925 4666 
Q 3281 4666 3915 4102 
Q 4550 3538 4550 2338 
Q 4550 1131 3912 565 
Q 3275 0 1925 0 
L 628 0 
L 628 4666 
z
" transform="scale(0.015625)"/>
      </defs>
      <use xlink:href="#DejaVuSans-43"/>
      <use xlink:href="#DejaVuSans-4e" x="69.824219"/>
      <use xlink:href="#DejaVuSans-4e" x="144.628906"/>
      <use xlink:href="#DejaVuSans-31" x="219.433594"/>
      <use xlink:href="#DejaVuSans-44" x="283.056641"/>
     </g>
    </g>
    <g id="line2d_20">
     <path d="M 448.115625 32.702303 
L 458.115625 32.702303 
L 468.115625 32.702303 
" style="fill: none; stroke: #ff7f0e; stroke-width: 1.5; stroke-linecap: square"/>
     <g>
      <use xlink:href="#mc324488743" x="458.115625" y="32.702303" style="fill: #ff7f0e; stroke: #ff7f0e"/>
     </g>
    </g>
    <g id="text_16">
     <!-- CNN2D -->
     <g transform="translate(476.115625 36.202303)scale(0.1 -0.1)">
      <use xlink:href="#DejaVuSans-43"/>
      <use xlink:href="#DejaVuSans-4e" x="69.824219"/>
      <use xlink:href="#DejaVuSans-4e" x="144.628906"/>
      <use xlink:href="#DejaVuSans-32" x="219.433594"/>
      <use xlink:href="#DejaVuSans-44" x="283.056641"/>
     </g>
    </g>
    <g id="line2d_21">
     <path d="M 448.115625 47.380428 
L 458.115625 47.380428 
L 468.115625 47.380428 
" style="fill: none; stroke: #2ca02c; stroke-width: 1.5; stroke-linecap: square"/>
     <g>
      <use xlink:href="#mc41711b739" x="458.115625" y="47.380428" style="fill: #2ca02c; stroke: #2ca02c"/>
     </g>
    </g>
    <g id="text_17">
     <!-- LSTM -->
     <g transform="translate(476.115625 50.880428)scale(0.1 -0.1)">
      <defs>
       <path id="DejaVuSans-4c" d="M 628 4666 
L 1259 4666 
L 1259 531 
L 3531 531 
L 3531 0 
L 628 0 
L 628 4666 
z
" transform="scale(0.015625)"/>
       <path id="DejaVuSans-53" d="M 3425 4513 
L 3425 3897 
Q 3066 4069 2747 4153 
Q 2428 4238 2131 4238 
Q 1616 4238 1336 4038 
Q 1056 3838 1056 3469 
Q 1056 3159 1242 3001 
Q 1428 2844 1947 2747 
L 2328 2669 
Q 3034 2534 3370 2195 
Q 3706 1856 3706 1288 
Q 3706 609 3251 259 
Q 2797 -91 1919 -91 
Q 1588 -91 1214 -16 
Q 841 59 441 206 
L 441 856 
Q 825 641 1194 531 
Q 1563 422 1919 422 
Q 2459 422 2753 634 
Q 3047 847 3047 1241 
Q 3047 1584 2836 1778 
Q 2625 1972 2144 2069 
L 1759 2144 
Q 1053 2284 737 2584 
Q 422 2884 422 3419 
Q 422 4038 858 4394 
Q 1294 4750 2059 4750 
Q 2388 4750 2728 4690 
Q 3069 4631 3425 4513 
z
" transform="scale(0.015625)"/>
       <path id="DejaVuSans-54" d="M -19 4666 
L 3928 4666 
L 3928 4134 
L 2272 4134 
L 2272 0 
L 1638 0 
L 1638 4134 
L -19 4134 
L -19 4666 
z
" transform="scale(0.015625)"/>
       <path id="DejaVuSans-4d" d="M 628 4666 
L 1569 4666 
L 2759 1491 
L 3956 4666 
L 4897 4666 
L 4897 0 
L 4281 0 
L 4281 4097 
L 3078 897 
L 2444 897 
L 1241 4097 
L 1241 0 
L 628 0 
L 628 4666 
z
" transform="scale(0.015625)"/>
      </defs>
      <use xlink:href="#DejaVuSans-4c"/>
      <use xlink:href="#DejaVuSans-53" x="55.712891"/>
      <use xlink:href="#DejaVuSans-54" x="119.189453"/>
      <use xlink:href="#DejaVuSans-4d" x="180.273438"/>
     </g>
    </g>
    <g id="line2d_22">
     <path d="M 448.115625 62.058553 
L 458.115625 62.058553 
L 468.115625 62.058553 
" style="fill: none; stroke: #d62728; stroke-width: 1.5; stroke-linecap: square"/>
     <g>
      <use xlink:href="#m0593382ff9" x="458.115625" y="62.058553" style="fill: #d62728; stroke: #d62728"/>
     </g>
    </g>
    <g id="text_18">
     <!-- LSTM -->
     <g transform="translate(476.115625 65.558553)scale(0.1 -0.1)">
      <use xlink:href="#DejaVuSans-4c"/>
      <use xlink:href="#DejaVuSans-53" x="55.712891"/>
      <use xlink:href="#DejaVuSans-54" x="119.189453"/>
      <use xlink:href="#DejaVuSans-4d" x="180.273438"/>
     </g>
    </g>
    <g id="line2d_23">
     <path d="M 448.115625 76.736678 
L 458.115625 76.736678 
L 468.115625 76.736678 
" style="fill: none; stroke: #9467bd; stroke-width: 1.5; stroke-linecap: square"/>
     <g>
      <use xlink:href="#m832d0d77a1" x="458.115625" y="76.736678" style="fill: #9467bd; stroke: #9467bd"/>
     </g>
    </g>
    <g id="text_19">
     <!-- SVM -->
     <g transform="translate(476.115625 80.236678)scale(0.1 -0.1)">
      <defs>
       <path id="DejaVuSans-56" d="M 1831 0 
L 50 4666 
L 709 4666 
L 2188 738 
L 3669 4666 
L 4325 4666 
L 2547 0 
L 1831 0 
z
" transform="scale(0.015625)"/>
      </defs>
      <use xlink:href="#DejaVuSans-53"/>
      <use xlink:href="#DejaVuSans-56" x="63.476562"/>
      <use xlink:href="#DejaVuSans-4d" x="131.884766"/>
     </g>
    </g>
    <g id="line2d_24">
     <path d="M 448.115625 91.414803 
L 458.115625 91.414803 
L 468.115625 91.414803 
" style="fill: none; stroke: #8c564b; stroke-width: 1.5; stroke-linecap: square"/>
     <g>
      <use xlink:href="#m360aa8271e" x="458.115625" y="91.414803" style="fill: #8c564b; stroke: #8c564b"/>
     </g>
    </g>
    <g id="text_20">
     <!-- XGBOOST -->
     <g transform="translate(476.115625 94.914803)scale(0.1 -0.1)">
      <defs>
       <path id="DejaVuSans-58" d="M 403 4666 
L 1081 4666 
L 2241 2931 
L 3406 4666 
L 4084 4666 
L 2584 2425 
L 4184 0 
L 3506 0 
L 2194 1984 
L 872 0 
L 191 0 
L 1856 2491 
L 403 4666 
z
" transform="scale(0.015625)"/>
       <path id="DejaVuSans-47" d="M 3809 666 
L 3809 1919 
L 2778 1919 
L 2778 2438 
L 4434 2438 
L 4434 434 
Q 4069 175 3628 42 
Q 3188 -91 2688 -91 
Q 1594 -91 976 548 
Q 359 1188 359 2328 
Q 359 3472 976 4111 
Q 1594 4750 2688 4750 
Q 3144 4750 3555 4637 
Q 3966 4525 4313 4306 
L 4313 3634 
Q 3963 3931 3569 4081 
Q 3175 4231 2741 4231 
Q 1884 4231 1454 3753 
Q 1025 3275 1025 2328 
Q 1025 1384 1454 906 
Q 1884 428 2741 428 
Q 3075 428 3337 486 
Q 3600 544 3809 666 
z
" transform="scale(0.015625)"/>
       <path id="DejaVuSans-42" d="M 1259 2228 
L 1259 519 
L 2272 519 
Q 2781 519 3026 730 
Q 3272 941 3272 1375 
Q 3272 1813 3026 2020 
Q 2781 2228 2272 2228 
L 1259 2228 
z
M 1259 4147 
L 1259 2741 
L 2194 2741 
Q 2656 2741 2882 2914 
Q 3109 3088 3109 3444 
Q 3109 3797 2882 3972 
Q 2656 4147 2194 4147 
L 1259 4147 
z
M 628 4666 
L 2241 4666 
Q 2963 4666 3353 4366 
Q 3744 4066 3744 3513 
Q 3744 3084 3544 2831 
Q 3344 2578 2956 2516 
Q 3422 2416 3680 2098 
Q 3938 1781 3938 1306 
Q 3938 681 3513 340 
Q 3088 0 2303 0 
L 628 0 
L 628 4666 
z
" transform="scale(0.015625)"/>
       <path id="DejaVuSans-4f" d="M 2522 4238 
Q 1834 4238 1429 3725 
Q 1025 3213 1025 2328 
Q 1025 1447 1429 934 
Q 1834 422 2522 422 
Q 3209 422 3611 934 
Q 4013 1447 4013 2328 
Q 4013 3213 3611 3725 
Q 3209 4238 2522 4238 
z
M 2522 4750 
Q 3503 4750 4090 4092 
Q 4678 3434 4678 2328 
Q 4678 1225 4090 567 
Q 3503 -91 2522 -91 
Q 1538 -91 948 565 
Q 359 1222 359 2328 
Q 359 3434 948 4092 
Q 1538 4750 2522 4750 
z
" transform="scale(0.015625)"/>
      </defs>
      <use xlink:href="#DejaVuSans-58"/>
      <use xlink:href="#DejaVuSans-47" x="68.505859"/>
      <use xlink:href="#DejaVuSans-42" x="145.996094"/>
      <use xlink:href="#DejaVuSans-4f" x="212.849609"/>
      <use xlink:href="#DejaVuSans-4f" x="291.560547"/>
      <use xlink:href="#DejaVuSans-53" x="370.271484"/>
      <use xlink:href="#DejaVuSans-54" x="433.748047"/>
     </g>
    </g>
   </g>
  </g>
  <g id="axes_2">
   <g id="patch_8">
    <path d="M 581.98125 398.64351 
L 1076.99976 398.64351 
L 1076.99976 4.925741 
L 581.98125 4.925741 
z
" style="fill: #ffffff"/>
   </g>
   <g id="matplotlib.axis_3">
    <g id="xtick_7">
     <g id="line2d_25">
      <g>
       <use xlink:href="#me9a41e2cd3" x="675.53738" y="398.64351" style="stroke: #000000; stroke-width: 0.8"/>
      </g>
     </g>
     <g id="text_21">
      <!-- 0.2 -->
      <g transform="translate(667.585817 413.241947)scale(0.1 -0.1)">
       <use xlink:href="#DejaVuSans-30"/>
       <use xlink:href="#DejaVuSans-2e" x="63.623047"/>
       <use xlink:href="#DejaVuSans-32" x="95.410156"/>
      </g>
     </g>
    </g>
    <g id="xtick_8">
     <g id="line2d_26">
      <g>
       <use xlink:href="#me9a41e2cd3" x="770.277765" y="398.64351" style="stroke: #000000; stroke-width: 0.8"/>
      </g>
     </g>
     <g id="text_22">
      <!-- 0.4 -->
      <g transform="translate(762.326202 413.241947)scale(0.1 -0.1)">
       <use xlink:href="#DejaVuSans-30"/>
       <use xlink:href="#DejaVuSans-2e" x="63.623047"/>
       <use xlink:href="#DejaVuSans-34" x="95.410156"/>
      </g>
     </g>
    </g>
    <g id="xtick_9">
     <g id="line2d_27">
      <g>
       <use xlink:href="#me9a41e2cd3" x="865.018149" y="398.64351" style="stroke: #000000; stroke-width: 0.8"/>
      </g>
     </g>
     <g id="text_23">
      <!-- 0.6 -->
      <g transform="translate(857.066587 413.241947)scale(0.1 -0.1)">
       <use xlink:href="#DejaVuSans-30"/>
       <use xlink:href="#DejaVuSans-2e" x="63.623047"/>
       <use xlink:href="#DejaVuSans-36" x="95.410156"/>
      </g>
     </g>
    </g>
    <g id="xtick_10">
     <g id="line2d_28">
      <g>
       <use xlink:href="#me9a41e2cd3" x="959.758534" y="398.64351" style="stroke: #000000; stroke-width: 0.8"/>
      </g>
     </g>
     <g id="text_24">
      <!-- 0.8 -->
      <g transform="translate(951.806971 413.241947)scale(0.1 -0.1)">
       <use xlink:href="#DejaVuSans-30"/>
       <use xlink:href="#DejaVuSans-2e" x="63.623047"/>
       <use xlink:href="#DejaVuSans-38" x="95.410156"/>
      </g>
     </g>
    </g>
    <g id="xtick_11">
     <g id="line2d_29">
      <g>
       <use xlink:href="#me9a41e2cd3" x="1054.498919" y="398.64351" style="stroke: #000000; stroke-width: 0.8"/>
      </g>
     </g>
     <g id="text_25">
      <!-- 1.0 -->
      <g transform="translate(1046.547356 413.241947)scale(0.1 -0.1)">
       <use xlink:href="#DejaVuSans-31"/>
       <use xlink:href="#DejaVuSans-2e" x="63.623047"/>
       <use xlink:href="#DejaVuSans-30" x="95.410156"/>
      </g>
     </g>
    </g>
    <g id="text_26">
     <!-- Threshold -->
     <g transform="translate(804.852224 426.920073)scale(0.1 -0.1)">
      <defs>
       <path id="DejaVuSans-68" d="M 3513 2113 
L 3513 0 
L 2938 0 
L 2938 2094 
Q 2938 2591 2744 2837 
Q 2550 3084 2163 3084 
Q 1697 3084 1428 2787 
Q 1159 2491 1159 1978 
L 1159 0 
L 581 0 
L 581 4863 
L 1159 4863 
L 1159 2956 
Q 1366 3272 1645 3428 
Q 1925 3584 2291 3584 
Q 2894 3584 3203 3211 
Q 3513 2838 3513 2113 
z
" transform="scale(0.015625)"/>
       <path id="DejaVuSans-64" d="M 2906 2969 
L 2906 4863 
L 3481 4863 
L 3481 0 
L 2906 0 
L 2906 525 
Q 2725 213 2448 61 
Q 2172 -91 1784 -91 
Q 1150 -91 751 415 
Q 353 922 353 1747 
Q 353 2572 751 3078 
Q 1150 3584 1784 3584 
Q 2172 3584 2448 3432 
Q 2725 3281 2906 2969 
z
M 947 1747 
Q 947 1113 1208 752 
Q 1469 391 1925 391 
Q 2381 391 2643 752 
Q 2906 1113 2906 1747 
Q 2906 2381 2643 2742 
Q 2381 3103 1925 3103 
Q 1469 3103 1208 2742 
Q 947 2381 947 1747 
z
" transform="scale(0.015625)"/>
      </defs>
      <use xlink:href="#DejaVuSans-54"/>
      <use xlink:href="#DejaVuSans-68" x="61.083984"/>
      <use xlink:href="#DejaVuSans-72" x="124.462891"/>
      <use xlink:href="#DejaVuSans-65" x="163.326172"/>
      <use xlink:href="#DejaVuSans-73" x="224.849609"/>
      <use xlink:href="#DejaVuSans-68" x="276.949219"/>
      <use xlink:href="#DejaVuSans-6f" x="340.328125"/>
      <use xlink:href="#DejaVuSans-6c" x="401.509766"/>
      <use xlink:href="#DejaVuSans-64" x="429.292969"/>
     </g>
    </g>
   </g>
   <g id="matplotlib.axis_4">
    <g id="ytick_7">
     <g id="line2d_30">
      <g>
       <use xlink:href="#m869a2f39f6" x="581.98125" y="380.747248" style="stroke: #000000; stroke-width: 0.8"/>
      </g>
     </g>
     <g id="text_27">
      <!-- 0.0 -->
      <g transform="translate(559.078125 384.546467)scale(0.1 -0.1)">
       <use xlink:href="#DejaVuSans-30"/>
       <use xlink:href="#DejaVuSans-2e" x="63.623047"/>
       <use xlink:href="#DejaVuSans-30" x="95.410156"/>
      </g>
     </g>
    </g>
    <g id="ytick_8">
     <g id="line2d_31">
      <g>
       <use xlink:href="#m869a2f39f6" x="581.98125" y="324.722801" style="stroke: #000000; stroke-width: 0.8"/>
      </g>
     </g>
     <g id="text_28">
      <!-- 0.1 -->
      <g transform="translate(559.078125 328.52202)scale(0.1 -0.1)">
       <use xlink:href="#DejaVuSans-30"/>
       <use xlink:href="#DejaVuSans-2e" x="63.623047"/>
       <use xlink:href="#DejaVuSans-31" x="95.410156"/>
      </g>
     </g>
    </g>
    <g id="ytick_9">
     <g id="line2d_32">
      <g>
       <use xlink:href="#m869a2f39f6" x="581.98125" y="268.698355" style="stroke: #000000; stroke-width: 0.8"/>
      </g>
     </g>
     <g id="text_29">
      <!-- 0.2 -->
      <g transform="translate(559.078125 272.497573)scale(0.1 -0.1)">
       <use xlink:href="#DejaVuSans-30"/>
       <use xlink:href="#DejaVuSans-2e" x="63.623047"/>
       <use xlink:href="#DejaVuSans-32" x="95.410156"/>
      </g>
     </g>
    </g>
    <g id="ytick_10">
     <g id="line2d_33">
      <g>
       <use xlink:href="#m869a2f39f6" x="581.98125" y="212.673908" style="stroke: #000000; stroke-width: 0.8"/>
      </g>
     </g>
     <g id="text_30">
      <!-- 0.3 -->
      <g transform="translate(559.078125 216.473127)scale(0.1 -0.1)">
       <defs>
        <path id="DejaVuSans-33" d="M 2597 2516 
Q 3050 2419 3304 2112 
Q 3559 1806 3559 1356 
Q 3559 666 3084 287 
Q 2609 -91 1734 -91 
Q 1441 -91 1130 -33 
Q 819 25 488 141 
L 488 750 
Q 750 597 1062 519 
Q 1375 441 1716 441 
Q 2309 441 2620 675 
Q 2931 909 2931 1356 
Q 2931 1769 2642 2001 
Q 2353 2234 1838 2234 
L 1294 2234 
L 1294 2753 
L 1863 2753 
Q 2328 2753 2575 2939 
Q 2822 3125 2822 3475 
Q 2822 3834 2567 4026 
Q 2313 4219 1838 4219 
Q 1578 4219 1281 4162 
Q 984 4106 628 3988 
L 628 4550 
Q 988 4650 1302 4700 
Q 1616 4750 1894 4750 
Q 2613 4750 3031 4423 
Q 3450 4097 3450 3541 
Q 3450 3153 3228 2886 
Q 3006 2619 2597 2516 
z
" transform="scale(0.015625)"/>
       </defs>
       <use xlink:href="#DejaVuSans-30"/>
       <use xlink:href="#DejaVuSans-2e" x="63.623047"/>
       <use xlink:href="#DejaVuSans-33" x="95.410156"/>
      </g>
     </g>
    </g>
    <g id="ytick_11">
     <g id="line2d_34">
      <g>
       <use xlink:href="#m869a2f39f6" x="581.98125" y="156.649461" style="stroke: #000000; stroke-width: 0.8"/>
      </g>
     </g>
     <g id="text_31">
      <!-- 0.4 -->
      <g transform="translate(559.078125 160.44868)scale(0.1 -0.1)">
       <use xlink:href="#DejaVuSans-30"/>
       <use xlink:href="#DejaVuSans-2e" x="63.623047"/>
       <use xlink:href="#DejaVuSans-34" x="95.410156"/>
      </g>
     </g>
    </g>
    <g id="ytick_12">
     <g id="line2d_35">
      <g>
       <use xlink:href="#m869a2f39f6" x="581.98125" y="100.625015" style="stroke: #000000; stroke-width: 0.8"/>
      </g>
     </g>
     <g id="text_32">
      <!-- 0.5 -->
      <g transform="translate(559.078125 104.424234)scale(0.1 -0.1)">
       <defs>
        <path id="DejaVuSans-35" d="M 691 4666 
L 3169 4666 
L 3169 4134 
L 1269 4134 
L 1269 2991 
Q 1406 3038 1543 3061 
Q 1681 3084 1819 3084 
Q 2600 3084 3056 2656 
Q 3513 2228 3513 1497 
Q 3513 744 3044 326 
Q 2575 -91 1722 -91 
Q 1428 -91 1123 -41 
Q 819 9 494 109 
L 494 744 
Q 775 591 1075 516 
Q 1375 441 1709 441 
Q 2250 441 2565 725 
Q 2881 1009 2881 1497 
Q 2881 1984 2565 2268 
Q 2250 2553 1709 2553 
Q 1456 2553 1204 2497 
Q 953 2441 691 2322 
L 691 4666 
z
" transform="scale(0.015625)"/>
       </defs>
       <use xlink:href="#DejaVuSans-30"/>
       <use xlink:href="#DejaVuSans-2e" x="63.623047"/>
       <use xlink:href="#DejaVuSans-35" x="95.410156"/>
      </g>
     </g>
    </g>
    <g id="ytick_13">
     <g id="line2d_36">
      <g>
       <use xlink:href="#m869a2f39f6" x="581.98125" y="44.600568" style="stroke: #000000; stroke-width: 0.8"/>
      </g>
     </g>
     <g id="text_33">
      <!-- 0.6 -->
      <g transform="translate(559.078125 48.399787)scale(0.1 -0.1)">
       <use xlink:href="#DejaVuSans-30"/>
       <use xlink:href="#DejaVuSans-2e" x="63.623047"/>
       <use xlink:href="#DejaVuSans-36" x="95.410156"/>
      </g>
     </g>
    </g>
    <g id="text_34">
     <!-- F1 -->
     <g transform="translate(552.998437 207.841657)rotate(-90)scale(0.1 -0.1)">
      <defs>
       <path id="DejaVuSans-46" d="M 628 4666 
L 3309 4666 
L 3309 4134 
L 1259 4134 
L 1259 2759 
L 3109 2759 
L 3109 2228 
L 1259 2228 
L 1259 0 
L 628 0 
L 628 4666 
z
" transform="scale(0.015625)"/>
      </defs>
      <use xlink:href="#DejaVuSans-46"/>
      <use xlink:href="#DejaVuSans-31" x="57.519531"/>
     </g>
    </g>
   </g>
   <g id="line2d_37">
    <path d="M 604.482091 240.66589 
L 628.167188 176.494385 
L 651.852284 131.866326 
L 675.53738 100.474315 
L 699.222476 77.229009 
L 722.907572 58.999486 
L 746.592668 47.120994 
L 770.277765 38.356417 
L 793.962861 33.982967 
L 817.647957 31.982145 
L 841.333053 33.99492 
L 865.018149 38.502661 
L 888.703245 46.833072 
L 912.388342 60.471046 
L 936.073438 74.30574 
L 959.758534 95.921701 
L 983.44363 124.960274 
L 1007.128726 160.755284 
L 1030.813822 213.185893 
L 1054.498919 380.747248 
" clip-path="url(#pef104448d1)" style="fill: none; stroke: #1f77b4; stroke-width: 1.5; stroke-linecap: square"/>
    <g clip-path="url(#pef104448d1)">
     <use xlink:href="#m71fac0e031" x="604.482091" y="240.66589" style="fill: #1f77b4; stroke: #1f77b4"/>
     <use xlink:href="#m71fac0e031" x="628.167188" y="176.494385" style="fill: #1f77b4; stroke: #1f77b4"/>
     <use xlink:href="#m71fac0e031" x="651.852284" y="131.866326" style="fill: #1f77b4; stroke: #1f77b4"/>
     <use xlink:href="#m71fac0e031" x="675.53738" y="100.474315" style="fill: #1f77b4; stroke: #1f77b4"/>
     <use xlink:href="#m71fac0e031" x="699.222476" y="77.229009" style="fill: #1f77b4; stroke: #1f77b4"/>
     <use xlink:href="#m71fac0e031" x="722.907572" y="58.999486" style="fill: #1f77b4; stroke: #1f77b4"/>
     <use xlink:href="#m71fac0e031" x="746.592668" y="47.120994" style="fill: #1f77b4; stroke: #1f77b4"/>
     <use xlink:href="#m71fac0e031" x="770.277765" y="38.356417" style="fill: #1f77b4; stroke: #1f77b4"/>
     <use xlink:href="#m71fac0e031" x="793.962861" y="33.982967" style="fill: #1f77b4; stroke: #1f77b4"/>
     <use xlink:href="#m71fac0e031" x="817.647957" y="31.982145" style="fill: #1f77b4; stroke: #1f77b4"/>
     <use xlink:href="#m71fac0e031" x="841.333053" y="33.99492" style="fill: #1f77b4; stroke: #1f77b4"/>
     <use xlink:href="#m71fac0e031" x="865.018149" y="38.502661" style="fill: #1f77b4; stroke: #1f77b4"/>
     <use xlink:href="#m71fac0e031" x="888.703245" y="46.833072" style="fill: #1f77b4; stroke: #1f77b4"/>
     <use xlink:href="#m71fac0e031" x="912.388342" y="60.471046" style="fill: #1f77b4; stroke: #1f77b4"/>
     <use xlink:href="#m71fac0e031" x="936.073438" y="74.30574" style="fill: #1f77b4; stroke: #1f77b4"/>
     <use xlink:href="#m71fac0e031" x="959.758534" y="95.921701" style="fill: #1f77b4; stroke: #1f77b4"/>
     <use xlink:href="#m71fac0e031" x="983.44363" y="124.960274" style="fill: #1f77b4; stroke: #1f77b4"/>
     <use xlink:href="#m71fac0e031" x="1007.128726" y="160.755284" style="fill: #1f77b4; stroke: #1f77b4"/>
     <use xlink:href="#m71fac0e031" x="1030.813822" y="213.185893" style="fill: #1f77b4; stroke: #1f77b4"/>
     <use xlink:href="#m71fac0e031" x="1054.498919" y="380.747248" style="fill: #1f77b4; stroke: #1f77b4"/>
    </g>
   </g>
   <g id="line2d_38">
    <path d="M 604.482091 76.81914 
L 628.167188 83.786898 
L 651.852284 89.458089 
L 675.53738 93.853063 
L 699.222476 98.892977 
L 722.907572 102.709272 
L 746.592668 105.608846 
L 770.277765 109.785527 
L 793.962861 115.762924 
L 817.647957 119.805027 
L 841.333053 124.84265 
L 865.018149 132.388901 
L 888.703245 136.476888 
L 912.388342 142.514575 
L 936.073438 149.121998 
L 959.758534 161.376066 
L 983.44363 175.132629 
L 1007.128726 193.74269 
L 1030.813822 232.566151 
L 1054.498919 380.747248 
" clip-path="url(#pef104448d1)" style="fill: none; stroke: #ff7f0e; stroke-width: 1.5; stroke-linecap: square"/>
    <g clip-path="url(#pef104448d1)">
     <use xlink:href="#mc324488743" x="604.482091" y="76.81914" style="fill: #ff7f0e; stroke: #ff7f0e"/>
     <use xlink:href="#mc324488743" x="628.167188" y="83.786898" style="fill: #ff7f0e; stroke: #ff7f0e"/>
     <use xlink:href="#mc324488743" x="651.852284" y="89.458089" style="fill: #ff7f0e; stroke: #ff7f0e"/>
     <use xlink:href="#mc324488743" x="675.53738" y="93.853063" style="fill: #ff7f0e; stroke: #ff7f0e"/>
     <use xlink:href="#mc324488743" x="699.222476" y="98.892977" style="fill: #ff7f0e; stroke: #ff7f0e"/>
     <use xlink:href="#mc324488743" x="722.907572" y="102.709272" style="fill: #ff7f0e; stroke: #ff7f0e"/>
     <use xlink:href="#mc324488743" x="746.592668" y="105.608846" style="fill: #ff7f0e; stroke: #ff7f0e"/>
     <use xlink:href="#mc324488743" x="770.277765" y="109.785527" style="fill: #ff7f0e; stroke: #ff7f0e"/>
     <use xlink:href="#mc324488743" x="793.962861" y="115.762924" style="fill: #ff7f0e; stroke: #ff7f0e"/>
     <use xlink:href="#mc324488743" x="817.647957" y="119.805027" style="fill: #ff7f0e; stroke: #ff7f0e"/>
     <use xlink:href="#mc324488743" x="841.333053" y="124.84265" style="fill: #ff7f0e; stroke: #ff7f0e"/>
     <use xlink:href="#mc324488743" x="865.018149" y="132.388901" style="fill: #ff7f0e; stroke: #ff7f0e"/>
     <use xlink:href="#mc324488743" x="888.703245" y="136.476888" style="fill: #ff7f0e; stroke: #ff7f0e"/>
     <use xlink:href="#mc324488743" x="912.388342" y="142.514575" style="fill: #ff7f0e; stroke: #ff7f0e"/>
     <use xlink:href="#mc324488743" x="936.073438" y="149.121998" style="fill: #ff7f0e; stroke: #ff7f0e"/>
     <use xlink:href="#mc324488743" x="959.758534" y="161.376066" style="fill: #ff7f0e; stroke: #ff7f0e"/>
     <use xlink:href="#mc324488743" x="983.44363" y="175.132629" style="fill: #ff7f0e; stroke: #ff7f0e"/>
     <use xlink:href="#mc324488743" x="1007.128726" y="193.74269" style="fill: #ff7f0e; stroke: #ff7f0e"/>
     <use xlink:href="#mc324488743" x="1030.813822" y="232.566151" style="fill: #ff7f0e; stroke: #ff7f0e"/>
     <use xlink:href="#mc324488743" x="1054.498919" y="380.747248" style="fill: #ff7f0e; stroke: #ff7f0e"/>
    </g>
   </g>
   <g id="line2d_39">
    <path d="M 604.482091 178.932846 
L 628.167188 123.225042 
L 651.852284 88.727778 
L 675.53738 67.910021 
L 699.222476 53.441109 
L 722.907572 45.370188 
L 746.592668 40.381346 
L 770.277765 38.434534 
L 793.962861 39.526816 
L 817.647957 39.38871 
L 841.333053 40.149426 
L 865.018149 42.217347 
L 888.703245 43.594481 
L 912.388342 46.419528 
L 936.073438 51.352253 
L 959.758534 62.473732 
L 983.44363 77.764303 
L 1007.128726 102.896598 
L 1030.813822 189.190951 
L 1054.498919 380.747248 
" clip-path="url(#pef104448d1)" style="fill: none; stroke: #2ca02c; stroke-width: 1.5; stroke-linecap: square"/>
    <g clip-path="url(#pef104448d1)">
     <use xlink:href="#mc41711b739" x="604.482091" y="178.932846" style="fill: #2ca02c; stroke: #2ca02c"/>
     <use xlink:href="#mc41711b739" x="628.167188" y="123.225042" style="fill: #2ca02c; stroke: #2ca02c"/>
     <use xlink:href="#mc41711b739" x="651.852284" y="88.727778" style="fill: #2ca02c; stroke: #2ca02c"/>
     <use xlink:href="#mc41711b739" x="675.53738" y="67.910021" style="fill: #2ca02c; stroke: #2ca02c"/>
     <use xlink:href="#mc41711b739" x="699.222476" y="53.441109" style="fill: #2ca02c; stroke: #2ca02c"/>
     <use xlink:href="#mc41711b739" x="722.907572" y="45.370188" style="fill: #2ca02c; stroke: #2ca02c"/>
     <use xlink:href="#mc41711b739" x="746.592668" y="40.381346" style="fill: #2ca02c; stroke: #2ca02c"/>
     <use xlink:href="#mc41711b739" x="770.277765" y="38.434534" style="fill: #2ca02c; stroke: #2ca02c"/>
     <use xlink:href="#mc41711b739" x="793.962861" y="39.526816" style="fill: #2ca02c; stroke: #2ca02c"/>
     <use xlink:href="#mc41711b739" x="817.647957" y="39.38871" style="fill: #2ca02c; stroke: #2ca02c"/>
     <use xlink:href="#mc41711b739" x="841.333053" y="40.149426" style="fill: #2ca02c; stroke: #2ca02c"/>
     <use xlink:href="#mc41711b739" x="865.018149" y="42.217347" style="fill: #2ca02c; stroke: #2ca02c"/>
     <use xlink:href="#mc41711b739" x="888.703245" y="43.594481" style="fill: #2ca02c; stroke: #2ca02c"/>
     <use xlink:href="#mc41711b739" x="912.388342" y="46.419528" style="fill: #2ca02c; stroke: #2ca02c"/>
     <use xlink:href="#mc41711b739" x="936.073438" y="51.352253" style="fill: #2ca02c; stroke: #2ca02c"/>
     <use xlink:href="#mc41711b739" x="959.758534" y="62.473732" style="fill: #2ca02c; stroke: #2ca02c"/>
     <use xlink:href="#mc41711b739" x="983.44363" y="77.764303" style="fill: #2ca02c; stroke: #2ca02c"/>
     <use xlink:href="#mc41711b739" x="1007.128726" y="102.896598" style="fill: #2ca02c; stroke: #2ca02c"/>
     <use xlink:href="#mc41711b739" x="1030.813822" y="189.190951" style="fill: #2ca02c; stroke: #2ca02c"/>
     <use xlink:href="#mc41711b739" x="1054.498919" y="380.747248" style="fill: #2ca02c; stroke: #2ca02c"/>
    </g>
   </g>
   <g id="line2d_40">
    <path d="M 604.482091 291.941756 
L 628.167188 232.432045 
L 651.852284 177.763202 
L 675.53738 123.125591 
L 699.222476 80.781413 
L 722.907572 47.169684 
L 746.592668 26.641767 
L 770.277765 22.822003 
L 793.962861 26.601902 
L 817.647957 37.209454 
L 841.333053 61.299796 
L 865.018149 94.766709 
L 888.703245 140.36022 
L 912.388342 191.866038 
L 936.073438 272.039076 
L 959.758534 376.866837 
L 983.44363 380.747248 
L 1007.128726 380.747248 
L 1030.813822 380.747248 
L 1054.498919 380.747248 
" clip-path="url(#pef104448d1)" style="fill: none; stroke: #d62728; stroke-width: 1.5; stroke-linecap: square"/>
    <g clip-path="url(#pef104448d1)">
     <use xlink:href="#m0593382ff9" x="604.482091" y="291.941756" style="fill: #d62728; stroke: #d62728"/>
     <use xlink:href="#m0593382ff9" x="628.167188" y="232.432045" style="fill: #d62728; stroke: #d62728"/>
     <use xlink:href="#m0593382ff9" x="651.852284" y="177.763202" style="fill: #d62728; stroke: #d62728"/>
     <use xlink:href="#m0593382ff9" x="675.53738" y="123.125591" style="fill: #d62728; stroke: #d62728"/>
     <use xlink:href="#m0593382ff9" x="699.222476" y="80.781413" style="fill: #d62728; stroke: #d62728"/>
     <use xlink:href="#m0593382ff9" x="722.907572" y="47.169684" style="fill: #d62728; stroke: #d62728"/>
     <use xlink:href="#m0593382ff9" x="746.592668" y="26.641767" style="fill: #d62728; stroke: #d62728"/>
     <use xlink:href="#m0593382ff9" x="770.277765" y="22.822003" style="fill: #d62728; stroke: #d62728"/>
     <use xlink:href="#m0593382ff9" x="793.962861" y="26.601902" style="fill: #d62728; stroke: #d62728"/>
     <use xlink:href="#m0593382ff9" x="817.647957" y="37.209454" style="fill: #d62728; stroke: #d62728"/>
     <use xlink:href="#m0593382ff9" x="841.333053" y="61.299796" style="fill: #d62728; stroke: #d62728"/>
     <use xlink:href="#m0593382ff9" x="865.018149" y="94.766709" style="fill: #d62728; stroke: #d62728"/>
     <use xlink:href="#m0593382ff9" x="888.703245" y="140.36022" style="fill: #d62728; stroke: #d62728"/>
     <use xlink:href="#m0593382ff9" x="912.388342" y="191.866038" style="fill: #d62728; stroke: #d62728"/>
     <use xlink:href="#m0593382ff9" x="936.073438" y="272.039076" style="fill: #d62728; stroke: #d62728"/>
     <use xlink:href="#m0593382ff9" x="959.758534" y="376.866837" style="fill: #d62728; stroke: #d62728"/>
     <use xlink:href="#m0593382ff9" x="983.44363" y="380.747248" style="fill: #d62728; stroke: #d62728"/>
     <use xlink:href="#m0593382ff9" x="1007.128726" y="380.747248" style="fill: #d62728; stroke: #d62728"/>
     <use xlink:href="#m0593382ff9" x="1030.813822" y="380.747248" style="fill: #d62728; stroke: #d62728"/>
     <use xlink:href="#m0593382ff9" x="1054.498919" y="380.747248" style="fill: #d62728; stroke: #d62728"/>
    </g>
   </g>
   <g id="line2d_41">
    <path d="M 604.482091 339.898904 
L 628.167188 291.980765 
L 651.852284 245.060269 
L 675.53738 200.598899 
L 699.222476 166.508955 
L 722.907572 138.128658 
L 746.592668 115.684477 
L 770.277765 100.401323 
L 793.962861 89.029471 
L 817.647957 82.653184 
L 841.333053 81.979539 
L 865.018149 85.289347 
L 888.703245 91.14101 
L 912.388342 101.105699 
L 936.073438 115.891451 
L 959.758534 137.962617 
L 983.44363 164.925947 
L 1007.128726 198.866377 
L 1030.813822 239.055471 
L 1054.498919 380.747248 
" clip-path="url(#pef104448d1)" style="fill: none; stroke: #9467bd; stroke-width: 1.5; stroke-linecap: square"/>
    <g clip-path="url(#pef104448d1)">
     <use xlink:href="#m832d0d77a1" x="604.482091" y="339.898904" style="fill: #9467bd; stroke: #9467bd"/>
     <use xlink:href="#m832d0d77a1" x="628.167188" y="291.980765" style="fill: #9467bd; stroke: #9467bd"/>
     <use xlink:href="#m832d0d77a1" x="651.852284" y="245.060269" style="fill: #9467bd; stroke: #9467bd"/>
     <use xlink:href="#m832d0d77a1" x="675.53738" y="200.598899" style="fill: #9467bd; stroke: #9467bd"/>
     <use xlink:href="#m832d0d77a1" x="699.222476" y="166.508955" style="fill: #9467bd; stroke: #9467bd"/>
     <use xlink:href="#m832d0d77a1" x="722.907572" y="138.128658" style="fill: #9467bd; stroke: #9467bd"/>
     <use xlink:href="#m832d0d77a1" x="746.592668" y="115.684477" style="fill: #9467bd; stroke: #9467bd"/>
     <use xlink:href="#m832d0d77a1" x="770.277765" y="100.401323" style="fill: #9467bd; stroke: #9467bd"/>
     <use xlink:href="#m832d0d77a1" x="793.962861" y="89.029471" style="fill: #9467bd; stroke: #9467bd"/>
     <use xlink:href="#m832d0d77a1" x="817.647957" y="82.653184" style="fill: #9467bd; stroke: #9467bd"/>
     <use xlink:href="#m832d0d77a1" x="841.333053" y="81.979539" style="fill: #9467bd; stroke: #9467bd"/>
     <use xlink:href="#m832d0d77a1" x="865.018149" y="85.289347" style="fill: #9467bd; stroke: #9467bd"/>
     <use xlink:href="#m832d0d77a1" x="888.703245" y="91.14101" style="fill: #9467bd; stroke: #9467bd"/>
     <use xlink:href="#m832d0d77a1" x="912.388342" y="101.105699" style="fill: #9467bd; stroke: #9467bd"/>
     <use xlink:href="#m832d0d77a1" x="936.073438" y="115.891451" style="fill: #9467bd; stroke: #9467bd"/>
     <use xlink:href="#m832d0d77a1" x="959.758534" y="137.962617" style="fill: #9467bd; stroke: #9467bd"/>
     <use xlink:href="#m832d0d77a1" x="983.44363" y="164.925947" style="fill: #9467bd; stroke: #9467bd"/>
     <use xlink:href="#m832d0d77a1" x="1007.128726" y="198.866377" style="fill: #9467bd; stroke: #9467bd"/>
     <use xlink:href="#m832d0d77a1" x="1030.813822" y="239.055471" style="fill: #9467bd; stroke: #9467bd"/>
     <use xlink:href="#m832d0d77a1" x="1054.498919" y="380.747248" style="fill: #9467bd; stroke: #9467bd"/>
    </g>
   </g>
   <g id="line2d_42">
    <path d="M 628.167188 173.356909 
L 675.53738 99.338724 
L 722.907572 71.320871 
L 770.277765 63.857244 
L 817.647957 71.028508 
L 865.018149 87.41839 
L 912.388342 110.566988 
L 959.758534 154.477926 
L 1007.128726 249.644186 
L 1054.498919 380.747248 
" clip-path="url(#pef104448d1)" style="fill: none; stroke: #8c564b; stroke-width: 1.5; stroke-linecap: square"/>
    <g clip-path="url(#pef104448d1)">
     <use xlink:href="#m360aa8271e" x="628.167188" y="173.356909" style="fill: #8c564b; stroke: #8c564b"/>
     <use xlink:href="#m360aa8271e" x="675.53738" y="99.338724" style="fill: #8c564b; stroke: #8c564b"/>
     <use xlink:href="#m360aa8271e" x="722.907572" y="71.320871" style="fill: #8c564b; stroke: #8c564b"/>
     <use xlink:href="#m360aa8271e" x="770.277765" y="63.857244" style="fill: #8c564b; stroke: #8c564b"/>
     <use xlink:href="#m360aa8271e" x="817.647957" y="71.028508" style="fill: #8c564b; stroke: #8c564b"/>
     <use xlink:href="#m360aa8271e" x="865.018149" y="87.41839" style="fill: #8c564b; stroke: #8c564b"/>
     <use xlink:href="#m360aa8271e" x="912.388342" y="110.566988" style="fill: #8c564b; stroke: #8c564b"/>
     <use xlink:href="#m360aa8271e" x="959.758534" y="154.477926" style="fill: #8c564b; stroke: #8c564b"/>
     <use xlink:href="#m360aa8271e" x="1007.128726" y="249.644186" style="fill: #8c564b; stroke: #8c564b"/>
     <use xlink:href="#m360aa8271e" x="1054.498919" y="380.747248" style="fill: #8c564b; stroke: #8c564b"/>
    </g>
   </g>
   <g id="patch_9">
    <path d="M 581.98125 398.64351 
L 581.98125 4.925741 
" style="fill: none; stroke: #000000; stroke-width: 0.8; stroke-linejoin: miter; stroke-linecap: square"/>
   </g>
   <g id="patch_10">
    <path d="M 1076.99976 398.64351 
L 1076.99976 4.925741 
" style="fill: none; stroke: #000000; stroke-width: 0.8; stroke-linejoin: miter; stroke-linecap: square"/>
   </g>
   <g id="patch_11">
    <path d="M 581.98125 398.64351 
L 1076.99976 398.64351 
" style="fill: none; stroke: #000000; stroke-width: 0.8; stroke-linejoin: miter; stroke-linecap: square"/>
   </g>
   <g id="patch_12">
    <path d="M 581.98125 4.925741 
L 1076.99976 4.925741 
" style="fill: none; stroke: #000000; stroke-width: 0.8; stroke-linejoin: miter; stroke-linecap: square"/>
   </g>
   <g id="legend_2">
    <g id="patch_13">
     <path d="M 988.515385 100.994491 
L 1069.99976 100.994491 
Q 1071.99976 100.994491 1071.99976 98.994491 
L 1071.99976 11.925741 
Q 1071.99976 9.925741 1069.99976 9.925741 
L 988.515385 9.925741 
Q 986.515385 9.925741 986.515385 11.925741 
L 986.515385 98.994491 
Q 986.515385 100.994491 988.515385 100.994491 
z
" style="fill: #ffffff; opacity: 0.8; stroke: #cccccc; stroke-linejoin: miter"/>
    </g>
    <g id="line2d_43">
     <path d="M 990.515385 18.024178 
L 1000.515385 18.024178 
L 1010.515385 18.024178 
" style="fill: none; stroke: #1f77b4; stroke-width: 1.5; stroke-linecap: square"/>
     <g>
      <use xlink:href="#m71fac0e031" x="1000.515385" y="18.024178" style="fill: #1f77b4; stroke: #1f77b4"/>
     </g>
    </g>
    <g id="text_35">
     <!-- CNN1D -->
     <g transform="translate(1018.515385 21.524178)scale(0.1 -0.1)">
      <use xlink:href="#DejaVuSans-43"/>
      <use xlink:href="#DejaVuSans-4e" x="69.824219"/>
      <use xlink:href="#DejaVuSans-4e" x="144.628906"/>
      <use xlink:href="#DejaVuSans-31" x="219.433594"/>
      <use xlink:href="#DejaVuSans-44" x="283.056641"/>
     </g>
    </g>
    <g id="line2d_44">
     <path d="M 990.515385 32.702303 
L 1000.515385 32.702303 
L 1010.515385 32.702303 
" style="fill: none; stroke: #ff7f0e; stroke-width: 1.5; stroke-linecap: square"/>
     <g>
      <use xlink:href="#mc324488743" x="1000.515385" y="32.702303" style="fill: #ff7f0e; stroke: #ff7f0e"/>
     </g>
    </g>
    <g id="text_36">
     <!-- CNN2D -->
     <g transform="translate(1018.515385 36.202303)scale(0.1 -0.1)">
      <use xlink:href="#DejaVuSans-43"/>
      <use xlink:href="#DejaVuSans-4e" x="69.824219"/>
      <use xlink:href="#DejaVuSans-4e" x="144.628906"/>
      <use xlink:href="#DejaVuSans-32" x="219.433594"/>
      <use xlink:href="#DejaVuSans-44" x="283.056641"/>
     </g>
    </g>
    <g id="line2d_45">
     <path d="M 990.515385 47.380428 
L 1000.515385 47.380428 
L 1010.515385 47.380428 
" style="fill: none; stroke: #2ca02c; stroke-width: 1.5; stroke-linecap: square"/>
     <g>
      <use xlink:href="#mc41711b739" x="1000.515385" y="47.380428" style="fill: #2ca02c; stroke: #2ca02c"/>
     </g>
    </g>
    <g id="text_37">
     <!-- LSTM -->
     <g transform="translate(1018.515385 50.880428)scale(0.1 -0.1)">
      <use xlink:href="#DejaVuSans-4c"/>
      <use xlink:href="#DejaVuSans-53" x="55.712891"/>
      <use xlink:href="#DejaVuSans-54" x="119.189453"/>
      <use xlink:href="#DejaVuSans-4d" x="180.273438"/>
     </g>
    </g>
    <g id="line2d_46">
     <path d="M 990.515385 62.058553 
L 1000.515385 62.058553 
L 1010.515385 62.058553 
" style="fill: none; stroke: #d62728; stroke-width: 1.5; stroke-linecap: square"/>
     <g>
      <use xlink:href="#m0593382ff9" x="1000.515385" y="62.058553" style="fill: #d62728; stroke: #d62728"/>
     </g>
    </g>
    <g id="text_38">
     <!-- LSTM -->
     <g transform="translate(1018.515385 65.558553)scale(0.1 -0.1)">
      <use xlink:href="#DejaVuSans-4c"/>
      <use xlink:href="#DejaVuSans-53" x="55.712891"/>
      <use xlink:href="#DejaVuSans-54" x="119.189453"/>
      <use xlink:href="#DejaVuSans-4d" x="180.273438"/>
     </g>
    </g>
    <g id="line2d_47">
     <path d="M 990.515385 76.736678 
L 1000.515385 76.736678 
L 1010.515385 76.736678 
" style="fill: none; stroke: #9467bd; stroke-width: 1.5; stroke-linecap: square"/>
     <g>
      <use xlink:href="#m832d0d77a1" x="1000.515385" y="76.736678" style="fill: #9467bd; stroke: #9467bd"/>
     </g>
    </g>
    <g id="text_39">
     <!-- SVM -->
     <g transform="translate(1018.515385 80.236678)scale(0.1 -0.1)">
      <use xlink:href="#DejaVuSans-53"/>
      <use xlink:href="#DejaVuSans-56" x="63.476562"/>
      <use xlink:href="#DejaVuSans-4d" x="131.884766"/>
     </g>
    </g>
    <g id="line2d_48">
     <path d="M 990.515385 91.414803 
L 1000.515385 91.414803 
L 1010.515385 91.414803 
" style="fill: none; stroke: #8c564b; stroke-width: 1.5; stroke-linecap: square"/>
     <g>
      <use xlink:href="#m360aa8271e" x="1000.515385" y="91.414803" style="fill: #8c564b; stroke: #8c564b"/>
     </g>
    </g>
    <g id="text_40">
     <!-- XGBOOST -->
     <g transform="translate(1018.515385 94.914803)scale(0.1 -0.1)">
      <use xlink:href="#DejaVuSans-58"/>
      <use xlink:href="#DejaVuSans-47" x="68.505859"/>
      <use xlink:href="#DejaVuSans-42" x="145.996094"/>
      <use xlink:href="#DejaVuSans-4f" x="212.849609"/>
      <use xlink:href="#DejaVuSans-4f" x="291.560547"/>
      <use xlink:href="#DejaVuSans-53" x="370.271484"/>
      <use xlink:href="#DejaVuSans-54" x="433.748047"/>
     </g>
    </g>
   </g>
  </g>
 </g>
 <defs>
  <clipPath id="pbcecf84a41">
   <rect x="39.58149" y="4.925741" width="495.01851" height="393.717769"/>
  </clipPath>
  <clipPath id="pef104448d1">
   <rect x="581.98125" y="4.925741" width="495.01851" height="393.717769"/>
  </clipPath>
 </defs>
</svg>
